<?xml version="1.0" encoding="utf-8"?>
<!-- Generator: Adobe Illustrator 21.1.0, SVG Export Plug-In . SVG Version: 6.00 Build 0)  -->
<svg version="1.1" id="Layer_1" xmlns="http://www.w3.org/2000/svg" xmlns:xlink="http://www.w3.org/1999/xlink" x="0px" y="0px"
	 viewBox="0 0 270 154" style="enable-background:new 0 0 270 154;" xml:space="preserve">
<style type="text/css">
	.st0{fill:#F2F2F3;}
	.st1{fill:#808080;}
	.st2{font-family:'OpenSans-Regular';}
	.st3{font-size:14px;}
	.st4{fill:#F37A6A;}
	.st5{fill:#FFFFFF;}
	.st6{fill:none;stroke:#808080;stroke-width:1.0617;stroke-miterlimit:10;}
	.st7{fill:none;stroke:#808080;stroke-width:1.0617;stroke-miterlimit:10;stroke-dasharray:10.9152,10.9152;}
	.st8{fill:none;stroke:#808080;stroke-width:1.0617;stroke-miterlimit:10;stroke-dasharray:11.5446,11.5446;}
</style>
<rect class="st0" width="270" height="154"/>
<text transform="matrix(1 0 0 1 100.6667 135.1025)" class="st1 st2 st3">or drop images here</text>
<rect x="15" y="120.7" class="st4" width="70" height="19.2"/>
<g>
	<path class="st5" d="M34.9,131.8c0,2.2-1.4,3.8-3.5,3.8c-1.2,0-2.1-0.5-2.6-1.3v1.3h-1.6v-10.4h1.6v4.2c0.5-0.9,1.4-1.3,2.6-1.3
		C33.5,128,34.9,129.5,34.9,131.8z M33.3,131.7c0-1.4-0.9-2.4-2.3-2.4c-1.3,0-2.3,1-2.3,2.4c0,1.4,0.9,2.4,2.3,2.4
		C32.4,134.2,33.3,133.2,33.3,131.7z"/>
	<path class="st5" d="M40.8,128v1.5c-1.5-0.1-2.5,0.8-2.6,2.1v3.9h-1.6V128h1.6v1.5C38.7,128.5,39.6,128,40.8,128z"/>
	<path class="st5" d="M49.2,131.8c0,2.3-1.6,3.8-3.9,3.8c-2.3,0-3.9-1.5-3.9-3.8c0-2.2,1.6-3.8,3.9-3.8
		C47.6,128,49.2,129.5,49.2,131.8z M43.1,131.8c0,1.4,0.9,2.4,2.3,2.4c1.3,0,2.3-1,2.3-2.4c0-1.4-0.9-2.4-2.3-2.4
		C44,129.4,43.1,130.4,43.1,131.8z"/>
	<path class="st5" d="M51.1,128l1.9,5.9l1.9-5.9h1.7l1.9,5.9l1.9-5.9H62l-2.7,7.5h-1.7l-1.9-5.5l-1.9,5.5h-1.7l-2.7-7.5H51.1z"/>
	<path class="st5" d="M65.1,129.3c-0.6,0-1.1,0.2-1.1,0.7c0,1.4,4,0.6,4,3.3c0,1.5-1.4,2.2-2.9,2.2c-1.1,0-2.3-0.4-3-1l0.6-1.1
		c0.6,0.6,1.7,0.9,2.5,0.9c0.7,0,1.2-0.2,1.2-0.8c0-1.5-3.9-0.7-3.9-3.4c0-1.5,1.3-2.2,2.7-2.2c0.9,0,1.9,0.3,2.6,0.8l-0.6,1.2
		C66.6,129.5,65.8,129.3,65.1,129.3z"/>
	<path class="st5" d="M76.2,132.4h-5.6c0.3,1.1,1.1,1.9,2.3,1.9c0.8,0,1.6-0.3,2.1-0.9l0.9,0.9c-0.7,0.8-1.8,1.3-3.1,1.3
		c-2.3,0-3.8-1.5-3.8-3.8c0-2.3,1.6-3.8,3.8-3.8C75.3,128,76.4,129.7,76.2,132.4z M74.8,131.2c-0.1-1.2-0.9-1.9-2.1-1.9
		c-1.2,0-2,0.7-2.2,1.9H74.8z"/>
</g>
<g>
	<g>
		<polyline class="st6" points="518.5,-67.8 518.5,-62.4 513.1,-62.4 		"/>
		<line class="st7" x1="502.2" y1="-62.4" x2="289.4" y2="-62.4"/>
		<polyline class="st6" points="283.9,-62.4 278.5,-62.4 278.5,-67.8 		"/>
		<line class="st8" x1="278.5" y1="-79.3" x2="278.5" y2="-142.8"/>
		<polyline class="st6" points="278.5,-148.6 278.5,-154 283.9,-154 		"/>
		<line class="st7" x1="294.8" y1="-154" x2="507.7" y2="-154"/>
		<polyline class="st6" points="513.1,-154 518.5,-154 518.5,-148.6 		"/>
		<line class="st8" x1="518.5" y1="-137" x2="518.5" y2="-73.5"/>
	</g>
</g>
<g>
	<circle class="st0" cx="135" cy="61.6" r="39.6"/>
	<g>
		<g>
			<g>
				<path class="st1" d="M156.7,55.4c-1.7-4.6-6.2-7.9-11.4-7.9c-1.2,0-2.4,0.2-3.5,0.5c-3-4.8-8.3-8-14.3-8
					c-9.2,0-16.6,7.3-16.8,16.5c-3.4,1.9-5.6,5.6-5.6,9.7c0,6.2,5,11.2,11.2,11.2h11.2v-3.7h-11.2c-4.1,0-7.5-3.4-7.5-7.5
					c0-3.5,2.5-6.5,5.8-7.3c-0.1-0.7-0.2-1.4-0.2-2.1c0-7.2,5.9-13.1,13.1-13.1c5.9,0,10.9,3.9,12.5,9.3c1.4-1.1,3.3-1.8,5.2-1.8
					c4.3,0,7.9,3.3,8.4,7.5h0.1c4.1,0,7.5,3.4,7.5,7.5c0,4.1-3.3,7.5-7.5,7.5h-11.2v3.7h11.2c6.2,0,11.2-5,11.2-11.2
					C164.9,61.1,161.4,56.7,156.7,55.4z"/>
				<polygon class="st1" points="135,56.9 125.6,68.1 131.3,68.1 131.3,83.1 138.7,83.1 138.7,68.1 144.4,68.1 				"/>
			</g>
		</g>
	</g>
</g>
<g>
	<g>
		<polyline class="st6" points="255,102.1 255,107.4 249.6,107.4 		"/>
		<line class="st7" x1="238.7" y1="107.4" x2="25.8" y2="107.4"/>
		<polyline class="st6" points="20.4,107.4 15,107.4 15,102.1 		"/>
		<line class="st8" x1="15" y1="90.5" x2="15" y2="27"/>
		<polyline class="st6" points="15,21.2 15,15.9 20.4,15.9 		"/>
		<line class="st7" x1="31.3" y1="15.9" x2="244.2" y2="15.9"/>
		<polyline class="st6" points="249.6,15.9 255,15.9 255,21.2 		"/>
		<line class="st8" x1="255" y1="32.8" x2="255" y2="96.3"/>
	</g>
</g>
<rect class="st0" width="14.5" height="117.9"/>
<rect x="255.5" y="0.3" class="st0" width="14.5" height="117.9"/>
<rect x="126.8" y="-17.6" transform="matrix(-1.836970e-16 1 -1 -1.836970e-16 245.0687 -18.8374)" class="st0" width="10.3" height="261.5"/>
<rect x="127.5" y="-127.1" transform="matrix(6.123234e-17 -1 1 6.123234e-17 127.4703 142.7756)" class="st0" width="15.3" height="269.6"/>
</svg>
