<svg id="Layer_1" data-name="Layer 1" xmlns="http://www.w3.org/2000/svg" viewBox="0 0 615.32 170.63"><defs><style>.cls-1{fill:#f47a6a;}.cls-2{fill:#fff;}</style></defs><title>Artboard 1</title><path class="cls-1" d="M540,0H75.34A75.34,75.34,0,0,0,0,75.34v95.29H615.32V75.34A75.34,75.34,0,0,0,540,0Z"/><path class="cls-2" d="M199.89,61.43H233v5.85H206.36v14.5H229.8v5.69H206.36v21.72h-6.47Z"/><path class="cls-2" d="M241.41,61.43h6.54v47.76h-6.54Z"/><path class="cls-2" d="M258.45,61.43h6.47V103.5h24v5.69H258.45Z"/><path class="cls-2" d="M325.3,61.43v5.69H309.2v42.07h-6.54V67.12H286.57V61.43Z"/><path class="cls-2" d="M331.87,61.43h34.66v5.85H338.17v14.5h26.21v5.53H338.17V103.5H367v5.69H331.87Z"/><path class="cls-2" d="M376.44,61.43h21.71A21.32,21.32,0,0,1,407,63q6.61,3.06,6.61,11.28a11.75,11.75,0,0,1-6.73,11.41,9.78,9.78,0,0,1,4.21,3q1.41,1.85,1.58,6l.23,6.41a19.76,19.76,0,0,0,.46,4.06,4,4,0,0,0,2.08,2.93v1.07h-7.93a6,6,0,0,1-.52-1.59,30.35,30.35,0,0,1-.32-3.77l-.39-8q-.22-4.68-3.38-6.28a13.62,13.62,0,0,0-5.65-.88H382.91v20.48h-6.47Zm21,21.88a11.93,11.93,0,0,0,7-1.82Q407,79.67,407,74.92q0-5.1-3.6-7a11.5,11.5,0,0,0-5.15-1H382.91V83.31Z"/></svg>