<svg id="Layer_1" data-name="Layer 1" xmlns="http://www.w3.org/2000/svg" viewBox="0 0 150 41.59"><defs><style>.cls-1{fill:#f47a6a;}.cls-2{fill:#fff;}</style></defs><title>Artboard 1</title><path class="cls-1" d="M131.63,0H18.37A18.37,18.37,0,0,0,0,18.37V41.59H150V18.37A18.37,18.37,0,0,0,131.63,0Z"/><path class="cls-2" d="M31.06,14.91l-.93,4.6h9.24l-.93,4.57H29.24L27.8,31.26H21.89l4.18-20.92H42.45l-.93,4.57Z"/><path class="cls-2" d="M45.26,10.34h5.92L47,31.26H41.08Z"/><path class="cls-2" d="M55.39,10.34h5.92L58.08,26.57h10l-1,4.69H51.21Z"/><path class="cls-2" d="M75.18,15H68.75l1-4.69H88.45l-1,4.69H81.1L77.84,31.26H71.92Z"/><path class="cls-2" d="M95.56,14.91l-.69,3.53h9.3l-.87,4.42H94l-.75,3.83h11l-1,4.57H86.48l4.18-20.92H107l-.93,4.57Z"/><path class="cls-2" d="M122.32,25l3.56,6.28h-6.19l-3.11-5.56h-3l-1.11,5.56h-5.92l4.18-20.92h8.94c5.35,0,8.43,2.48,8.43,6.66A8.08,8.08,0,0,1,122.32,25Zm-3.47-10h-3.11l-1.26,6.13H118c2.6,0,4.13-1.26,4.13-3.56C122.14,15.81,120.88,15,118.85,15Z"/></svg>