<?xml version="1.0" encoding="utf-8"?>
<!-- Generator: Adobe Illustrator 21.1.0, SVG Export Plug-In . SVG Version: 6.00 Build 0)  -->
<svg version="1.1" id="Layer_1" xmlns="http://www.w3.org/2000/svg" xmlns:xlink="http://www.w3.org/1999/xlink" x="0px" y="0px"
	 viewBox="0 0 150 41.6" style="enable-background:new 0 0 150 41.6;" xml:space="preserve">
<style type="text/css">
	.st0{fill:#F47A6A;}
	.st1{fill:#D6DBED;}
	.st2{fill:#FFFFFF;}
	.st3{font-family:'Montserrat-Regular';}
	.st4{font-size:19.4439px;}
</style>
<rect class="st0" width="150" height="41.6"/>
<path class="st1" d="M291.2-399H291c-1.1-58.3-49.1-105.7-107.7-105.7H-1.4C-60-504.7-108-457.3-109.1-399h-0.1
	c-3.3,56.3-50.4,101.3-107.5,101.3h615.3C341.6-297.7,294.5-342.7,291.2-399z"/>
<text transform="matrix(1 0 0 1 450.6275 -257.7101)" class="st0" style="font-family:'Helvetica-Bold'; font-size:97.4228px;">Filter</text>
<g>
	<path class="st2" d="M114.4,86.9l-0.9,4.6h9.2l-0.9,4.6h-9.2l-1.4,7.2h-5.9l4.2-20.9h16.4l-0.9,4.6H114.4z"/>
	<path class="st2" d="M128.6,82.3h5.9l-4.2,20.9h-5.9L128.6,82.3z"/>
	<path class="st2" d="M138.7,82.3h5.9l-3.2,16.2h10l-1,4.7h-15.9L138.7,82.3z"/>
	<path class="st2" d="M158.5,87h-6.4l1-4.7h18.7l-1,4.7h-6.4l-3.3,16.2h-5.9L158.5,87z"/>
	<path class="st2" d="M178.9,86.9l-0.7,3.5h9.3l-0.9,4.4h-9.3l-0.7,3.8h11l-1,4.6h-16.8l4.2-20.9h16.4l-0.9,4.6H178.9z"/>
	<path class="st2" d="M205.6,97l3.6,6.3H203l-3.1-5.6h-3l-1.1,5.6h-5.9l4.2-20.9h8.9c5.3,0,8.4,2.5,8.4,6.7
		C211.4,92.9,209.3,95.7,205.6,97z M202.2,87h-3.1l-1.3,6.1h3.5c2.6,0,4.1-1.3,4.1-3.6C205.5,87.8,204.2,87,202.2,87z"/>
</g>
<text transform="matrix(1 0 0 1 13.1107 26.3192)" class="st2 st3 st4">Click to filter</text>
</svg>
