<svg id="Layer_1" data-name="Layer 1" xmlns="http://www.w3.org/2000/svg" viewBox="0 0 1500 300"><defs><style>.cls-1{font-size:68.08px;fill:#f47a6a;font-family:Montserrat-ExtraBoldItalic, Montserrat;font-weight:700;font-style:italic;}.cls-2{letter-spacing:-0.01em;}.cls-3{letter-spacing:-0.01em;}.cls-4{letter-spacing:-0.02em;}.cls-5{fill:gray;}.cls-6{fill:#feeb61;}.cls-7{fill:#88cca4;}.cls-8{fill:#7b66ad;}</style></defs><title>Artboard 1</title><text class="cls-1" transform="translate(588.75 150.33)">PO<tspan class="cls-2" x="107.77" y="0">S</tspan><tspan x="151.14" y="0">T</tspan></text><text class="cls-1" transform="translate(669.59 201.39)"><tspan class="cls-3">L</tspan><tspan x="40.78" y="0">O</tspan><tspan class="cls-4" x="98.38" y="0">C</tspan><tspan x="147.6" y="0">O</tspan></text><path class="cls-5" d="M409.09,232.29a1.14,1.14,0,0,0-1.09.26l-6.07,5.71-.87-3.27a1.14,1.14,0,0,0-1.39-.8l-1.78.48a10.17,10.17,0,1,0-18.39-5.74,7.67,7.67,0,1,0-8.31,12.87l-1,.27a1.14,1.14,0,0,0-.8,1.39l1.33,5-2.78.74a1.14,1.14,0,0,0-.8,1.39l1.15,4.31a1.14,1.14,0,0,0,1.39.8l2.78-.74,1.33,5a1.14,1.14,0,0,0,1.39.8l12.94-3.45-2.9,13a1.14,1.14,0,1,0,2.22.5l2.84-12.69,8.78,9.59a1.14,1.14,0,0,0,1.67-1.53l-9-9.82,12.94-3.45a1.14,1.14,0,0,0,.8-1.39l-.87-3.27,8.11,1.92a1.14,1.14,0,0,0,1.36-1.4l-4.17-15.62A1.13,1.13,0,0,0,409.09,232.29Zm-37.24,20.45-1.68.45-.57-2.12,1.68-.45ZM387.62,221a7.91,7.91,0,1,1-5.6,9.68A7.91,7.91,0,0,1,387.62,221Zm-5,15a10.25,10.25,0,0,0,2.86,1.91l-3.83,1A7.7,7.7,0,0,0,382.66,236.05Zm-9-6.11a5.4,5.4,0,1,1-3.83,6.61A5.41,5.41,0,0,1,373.64,229.95Zm26.58,10.74,1.67,6.25,1.07,4-13.63,3.64h0l-13.63,3.64-1.33-5-1.15-4.31-1.33-5,27.3-7.28Zm11.14,6.78-7.45-1.77-1.32-4.94,5.58-5.24Z"/><path class="cls-5" d="M374.15,231.83a3.45,3.45,0,1,0,4.22,2.44A3.45,3.45,0,0,0,374.15,231.83Zm1.25,4.69a1.4,1.4,0,1,1,1-1.72A1.41,1.41,0,0,1,375.4,236.52Z"/><path class="cls-5" d="M388.38,223.89a5,5,0,1,0,6.06,3.51A5,5,0,0,0,388.38,223.89Zm2,7.38a2.68,2.68,0,1,1,1.9-3.28A2.68,2.68,0,0,1,390.35,231.27Z"/><path class="cls-5" d="M389.59,242.64l-11.92,3.18a1.08,1.08,0,0,0-.76,1.32l1.55,5.81a1.08,1.08,0,0,0,1.32.76l11.92-3.18a1.08,1.08,0,0,0,.76-1.32l-1.55-5.81A1.08,1.08,0,0,0,389.59,242.64Zm.51,6.09-9.84,2.63-1-3.72,9.84-2.63,1,3.72Z"/><circle class="cls-5" cx="395.92" cy="243.24" r="1.14" transform="translate(-49.32 110.29) rotate(-14.94)"/><circle class="cls-5" cx="396.88" cy="246.86" r="1.14" transform="translate(-50.22 110.66) rotate(-14.94)"/><path class="cls-6" d="M490.88,171.76c-4.42-4.42-12.58-7.76-18.22-9.27a54.74,54.74,0,0,0-13.54-1.85,27,27,0,0,0-6.87.77,1.39,1.39,0,0,0-1,1c-.41,1.52-.76,3.1-1,4.73a1.36,1.36,0,0,0,0,.14,66.63,66.63,0,0,0-.57,19.42A55.93,55.93,0,0,0,439,188.44c-5.64,1.51-13.8,4.85-18.22,9.27a1.39,1.39,0,0,0-.36,1.34c.44,1.65,1,3.33,1.6,5h0a66.49,66.49,0,0,0,8.76,16.35c3.8,5.09,9.79,11.15,16.73,11.15a11.39,11.39,0,0,0,2.95-.39c4.23-1.13,7.55-4.67,9.61-10.22a46.22,46.22,0,0,0,2.44-15.46,11.4,11.4,0,0,0,1.67.12c6.93,0,12.92-6.07,16.73-11.15a66.28,66.28,0,0,0,10.37-21.38A1.39,1.39,0,0,0,490.88,171.76Zm-41.17,56.75a8.63,8.63,0,0,1-2.23.29c-4.51,0-9.67-3.57-14.51-10a63.34,63.34,0,0,1-8-14.75c.75-.58,1.94-1.48,3.18-2.32a1.39,1.39,0,1,0-1.55-2.3c-1,.65-1.88,1.32-2.61,1.87q-.36-1.09-.67-2.16c3.45-3.1,9.9-6.26,16.4-8a53,53,0,0,1,10.37-1.68,34.17,34.17,0,0,0,1.79,6.26v0l.22.53v0a22.54,22.54,0,0,0,1.25,2.49l0,0h0l.08.13.17.27.11.17.24.36.12.17.25.35.11.14.27.36,0,0c.18.23.37.45.56.67a4.44,4.44,0,0,1-7.32-.54,1.39,1.39,0,1,0-2.4,1.39,7.21,7.21,0,0,0,11.76,1,11.73,11.73,0,0,0,1.41.89l.06,0,.39.19.11.05.38.17,0,0C459.76,215.1,457.17,226.52,449.71,228.52Zm28.94-35.69c-4.84,6.48-10,10-14.51,10a8.62,8.62,0,0,1-2.23-.29l-.4-.12h0c-6-1.93-8.17-10-8.93-14.68v0l0-.25a62.36,62.36,0,0,1,.23-18.83c.94-.13,2.42-.31,3.91-.42a1.39,1.39,0,1,0-.19-2.76c-1.15.08-2.28.2-3.19.32.14-.64.28-1.27.44-1.89a26.17,26.17,0,0,1,5.38-.49,51.84,51.84,0,0,1,12.83,1.76c6.5,1.74,13,4.91,16.4,8A63.55,63.55,0,0,1,478.65,192.82Z"/><path class="cls-6" d="M482.15,182.12a7.21,7.21,0,0,0-12.49,0,1.39,1.39,0,0,0,2.4,1.39,4.44,4.44,0,0,1,7.69,0,1.39,1.39,0,1,0,2.4-1.39Z"/><path class="cls-6" d="M461.58,174.45a7.23,7.23,0,0,0-7.21,0,1.39,1.39,0,0,0,1.39,2.4,4.44,4.44,0,0,1,6.66,3.84,1.39,1.39,0,1,0,2.77,0A7.23,7.23,0,0,0,461.58,174.45Z"/><path class="cls-6" d="M470.67,192.08a1.39,1.39,0,0,0-2,0,4.44,4.44,0,0,1-7.43-2,1.39,1.39,0,1,0-2.68.72A7.21,7.21,0,0,0,470.67,194,1.39,1.39,0,0,0,470.67,192.08Z"/><path class="cls-6" d="M438.83,202.38h0a1.39,1.39,0,0,0-1.39,1.39,4.44,4.44,0,0,1-6.66,3.84,1.39,1.39,0,0,0-1.39,2.4,7.21,7.21,0,0,0,10.82-6.24A1.39,1.39,0,0,0,438.83,202.38Z"/><path class="cls-6" d="M453.42,218.23a7.21,7.21,0,0,0-12.06,3.23,1.39,1.39,0,1,0,2.68.72,4.44,4.44,0,0,1,7.43-2,1.39,1.39,0,0,0,2-2Z"/><path class="cls-6" d="M460.8,165.53l-.1,0a1.39,1.39,0,1,0-.4,2.74h.07l.22,0a1.39,1.39,0,0,0,.22-2.75Z"/><path class="cls-6" d="M432.12,198.09a1.39,1.39,0,0,0-1.79-.81l-.1,0a1.39,1.39,0,1,0,1,2.57l.06,0A1.39,1.39,0,0,0,432.12,198.09Z"/><path class="cls-7" d="M914.8,118.65l-1.37-22a1.15,1.15,0,0,0-1.22-1.08l-52.38,3.26a1.15,1.15,0,0,0-1.08,1.22l.65,10.4,0,.06-5.49,21.31a1.15,1.15,0,0,0,.83,1.4l50.82,13.09a1.15,1.15,0,0,0,1.4-.83l5.49-21.31a1.15,1.15,0,0,0-.83-1.4l-8.74-2.25,10.85-.68A1.15,1.15,0,0,0,914.8,118.65Zm-4.88,6.09L905,143.82l-48.59-12.51,4.91-19.08,6.18,1.59-3.2,12.44a1.15,1.15,0,0,0,2.23.57l3.2-12.44,25.5,6.57Zm-14.27-6.06-34-8.75-.55-8.85,6.38-.4.49,7.42a1.15,1.15,0,1,0,2.3-.15l-.49-7.41L911.2,98l1.22,19.66Z"/><path class="cls-7" d="M908.25,102.44a1.15,1.15,0,0,0-1.22-1.08l-31.54,2a1.15,1.15,0,1,0,.14,2.3l31.54-2A1.15,1.15,0,0,0,908.25,102.44Z"/><path class="cls-7" d="M901.47,108.42l6-.37a1.15,1.15,0,1,0-.14-2.3l-6,.37a1.15,1.15,0,1,0,.14,2.3Z"/><path class="cls-7" d="M904.81,114.75a1.15,1.15,0,0,0,1.22,1.08l1.89-.12a1.15,1.15,0,1,0-.14-2.3l-1.89.12A1.15,1.15,0,0,0,904.81,114.75Z"/><path class="cls-7" d="M901.67,113.79l-1.89.12a1.15,1.15,0,1,0,.14,2.3l1.89-.12a1.15,1.15,0,1,0-.14-2.3Z"/><path class="cls-7" d="M886.8,107l-11,.69a1.15,1.15,0,1,0,.14,2.3l11-.69a1.15,1.15,0,1,0-.14-2.3Z"/><path class="cls-7" d="M864.75,129.15a1.15,1.15,0,0,0-1.4.83l-.11.44a1.15,1.15,0,0,0,2.23.57l.11-.44A1.15,1.15,0,0,0,864.75,129.15Z"/><path class="cls-7" d="M872.89,119.61a1.15,1.15,0,0,0,.83,1.4l30.6,7.88a1.15,1.15,0,0,0,.57-2.23l-30.6-7.88A1.15,1.15,0,0,0,872.89,119.61Z"/><path class="cls-7" d="M903.8,130.93,898,129.44a1.15,1.15,0,0,0-.57,2.23l5.79,1.49a1.15,1.15,0,1,0,.57-2.23Z"/><path class="cls-7" d="M901.89,138.36l-1.83-.47a1.15,1.15,0,1,0-.57,2.23l1.83.47a1.15,1.15,0,0,0,.57-2.23Z"/><path class="cls-7" d="M896,136.83l-1.83-.47a1.15,1.15,0,0,0-.57,2.23l1.83.47a1.15,1.15,0,1,0,.57-2.23Z"/><path class="cls-7" d="M883.91,125.81,873.2,123a1.15,1.15,0,1,0-.57,2.23L883.34,128a1.15,1.15,0,0,0,.57-2.23Z"/><path class="cls-8" d="M619.59,210.5a.86.86,0,0,0-.47-.23h0l-1.93-.3-.87-1.86a.86.86,0,0,0-1.56,0L613.9,210l-1.93.3a.86.86,0,0,0-.49,1.45l1.42,1.46-.34,2.07a.86.86,0,0,0,1.27.89l1.71-.95,1.71.95a.86.86,0,0,0,1.27-.89l-.34-2.07,1.42-1.46A.86.86,0,0,0,619.59,210.5Zm-2.94,1.79a.86.86,0,0,0-.23.74l.12.75-.58-.32a.86.86,0,0,0-.83,0l-.58.32.12-.75a.86.86,0,0,0-.23-.74l-.55-.57.73-.11a.86.86,0,0,0,.65-.49l.28-.6.28.6a.86.86,0,0,0,.65.49l.73.11Z"/><path class="cls-8" d="M630.79,206.65a.86.86,0,0,0-.47-.23h0l-3.12-.48-1.4-3a.86.86,0,0,0-1.56,0l-1.4,3-3.12.48a.86.86,0,0,0-.49,1.45l2.28,2.34-.54,3.31a.86.86,0,0,0,1.27.89l2.78-1.54,2.78,1.54a.86.86,0,0,0,1.27-.89l-.54-3.31,2.28-2.34A.86.86,0,0,0,630.79,206.65Zm-3.8,2.66a.86.86,0,0,0-.23.74l.32,2-1.64-.91a.86.86,0,0,0-.83,0L623,212l.32-2a.86.86,0,0,0-.23-.74l-1.41-1.45,1.91-.29a.86.86,0,0,0,.65-.49l.82-1.74.82,1.74a.86.86,0,0,0,.65.49l1.91.29Z"/><path class="cls-8" d="M647.43,169.71h-4l2.58-2.58h1.37a.86.86,0,1,0,0-1.72H596.59a.86.86,0,1,0,0,1.72h4L598,169.71h-1.37a.86.86,0,1,0,0,1.72h2.62l0,3.29-1.57,1.64a3.76,3.76,0,0,0,.12,5.31l3.52,3.36a.86.86,0,0,0,.6.24h0a.89.89,0,0,0,.3-.07l9.6,13.8L607,213.38a.86.86,0,0,0,1.64.54L613,200.77l2.71,3.89a.86.86,0,0,0,1.41-1l-3.45-4.95,5.28-15.83a.84.84,0,0,0,0-.27h5.19a.84.84,0,0,0,0,.29L628,193.31l-3.64,5.21a.86.86,0,1,0,1.38,1l0,0,2.95-4.21,6.74,18.66a.86.86,0,0,0,.81.57.85.85,0,0,0,.29-.05.86.86,0,0,0,.52-1.1l-7.15-19.8,7.65-10.92,5.48,1.87-5.9,23.76a.86.86,0,0,0,.63,1h0l.21,0a.86.86,0,0,0,.84-.65l5.87-23.63.18,0a.86.86,0,0,0,.82-.58l1.57-4.6a3.75,3.75,0,0,0-2.34-4.77l0,0v-3.69h2.58a.86.86,0,0,0,0-1.72Zm-3.8-2.58-2.23,2.23-2.23-2.23Zm-4.31,2.58h-4.46l2.23-2.23ZM635,167.12l-2.23,2.23-2.23-2.23Zm-4.31,2.58h-4.46l2.23-2.23Zm-4.31-2.58-2.23,2.23-2.23-2.23Zm-4.31,2.58h-4.46l2.23-2.23Zm-4.31-2.58-2.23,2.23-2.23-2.23Zm-4.31,2.58H609l2.23-2.23Zm-4.31-2.58-2.23,2.23-2.23-2.23Zm-6.54.36,2.23,2.23h-4.46Zm-.81,15.71-2.9-2.76a2,2,0,0,1-.07-2.87l2-2a2,2,0,0,1,1.42-.63h0a2,2,0,0,1,1.4.56l2.89,2.76ZM612.44,197l-9-13,3.58-3.75,8.95,5.69.15.07Zm4.78-14.34-.58,1.72L608.21,179l.2-.21a.86.86,0,0,0,0-1.22h0l-3.52-3.36a3.67,3.67,0,0,0-2.68-1,3.74,3.74,0,0,0-1.28.27l0-2h19.78v1.72h-.55a3.76,3.76,0,0,0-3.75,3.75v4.86A.86.86,0,0,0,617.22,182.62Zm7.8-1.71h-6.89v-4a2,2,0,0,1,2-2H623a2,2,0,0,1,2,2Zm12.42-4.35-1.57,4.6a.86.86,0,0,0,0,.66l0,.07-6.79,9.7-3.23-9a.86.86,0,0,0,.81-.85v-4.86a3.76,3.76,0,0,0-3.75-3.75h-.55v-1.72h20.68v3.1l-.91-.31A3.76,3.76,0,0,0,637.44,176.56Zm8.16,2.79-1.29,3.78-6.53-2.23,1.29-3.78a2,2,0,0,1,2.58-1.27h0l2.68.92A2,2,0,0,1,645.6,179.35Z"/><path class="cls-5" d="M806.8,246.48a1.47,1.47,0,0,0-.69-.94l-.44-.26a6.35,6.35,0,0,0-.62-6.61q.13-.22.24-.45a6.39,6.39,0,0,0-1.51-7.55A12.25,12.25,0,0,0,786,226.8c-.1.14-.19.28-.28.43a6.35,6.35,0,0,0-6.09,2.65l-.44-.26a1.47,1.47,0,0,0-2.05.6l-13.22,25.9a4.41,4.41,0,0,0,1.68,5.79L784.4,273a4.41,4.41,0,0,0,5.88-1.32l16.3-24.09A1.47,1.47,0,0,0,806.8,246.48ZM786,230.32a1.47,1.47,0,0,0,1.91-.92,3.42,3.42,0,0,1,5-1.88l0,0a1.47,1.47,0,0,0,1.93-.4,3.42,3.42,0,0,1,5.86,3.46,1.47,1.47,0,0,0,.58,1.88l0,0a3.42,3.42,0,0,1,.76,5.28,1.47,1.47,0,0,0,.12,2.11,3.41,3.41,0,0,1,.93,3.89l-21-12.4A3.41,3.41,0,0,1,786,230.32Zm1.84,39.75a1.47,1.47,0,0,1-2,.44l-3-1.78,3.24-4.79a1.47,1.47,0,0,0-2.43-1.64l-3.35,4.94-2.6-1.54,3.06-5.18a1.47,1.47,0,0,0-2.53-1.49l-3.06,5.18-2.6-1.54,2.71-5.32a1.47,1.47,0,0,0-2.61-1.33l-2.63,5.15-3-1.78a1.47,1.47,0,0,1-.56-1.93L779,232.94l4.21,2.48-2,4a1.47,1.47,0,0,0,.56,1.93l.08,0a1.47,1.47,0,0,0,2-.64l2-3.85,4.13,2.44-1.74,2.95a1.47,1.47,0,0,0,2.53,1.49l1.74-2.95,4.13,2.44-2.42,3.58a1.47,1.47,0,0,0,.39,2l.08,0a1.47,1.47,0,0,0,2-.44l2.52-3.73,4.21,2.48Z"/><path class="cls-5" d="M791.88,248.49l-8.42-5a4.41,4.41,0,0,0-6,1.55l-2,3.37a4.41,4.41,0,0,0,1.55,6l8.42,5a4.41,4.41,0,0,0,6-1.55l2-3.37A4.41,4.41,0,0,0,791.88,248.49Zm-3,7.9a1.47,1.47,0,0,1-2,.52l-8.42-5a1.47,1.47,0,0,1-.52-2l2-3.37a1.47,1.47,0,0,1,2-.52l8.42,5a1.47,1.47,0,0,1,.52,2Z"/><path class="cls-5" d="M541.26,182.4a1.11,1.11,0,1,0-.46-1.49A1.11,1.11,0,0,0,541.26,182.4Z"/><path class="cls-5" d="M518.53,197.86l40.22,21.37a5.53,5.53,0,0,0,7.47-2.29l18.67-35.15a5.53,5.53,0,0,0-2.29-7.47l-40.22-21.37a5.53,5.53,0,0,0-7.47,2.29l-18.67,35.15A5.53,5.53,0,0,0,518.53,197.86Zm64.42-17.1L564.27,215.9a3.32,3.32,0,0,1-4.48,1.37L522.5,197.46l21.78-41,37.29,19.81A3.32,3.32,0,0,1,582.94,180.75Zm-46.08-24.48a3.32,3.32,0,0,1,4.48-1.37l1,.52-21.78,41-1-.52a3.32,3.32,0,0,1-1.37-4.48Z"/><path class="cls-5" d="M544.68,204.24a18.79,18.79,0,1,0-7.78-25.41A18.81,18.81,0,0,0,544.68,204.24ZM561.28,173a16.58,16.58,0,1,1-22.42,6.86A16.6,16.6,0,0,1,561.28,173Z"/><path class="cls-5" d="M548.27,199.88a1.11,1.11,0,0,0,.7,1.4,14.4,14.4,0,0,0,17.23-6.9,1.11,1.11,0,1,0-2-1,12.12,12.12,0,0,1-14.57,5.84A1.11,1.11,0,0,0,548.27,199.88Z"/><path class="cls-5" d="M543.67,178.66a1.11,1.11,0,0,0,1.56.06,12.18,12.18,0,0,1,14-1.82,1.11,1.11,0,0,0,1-2,14.39,14.39,0,0,0-16.51,2.15A1.11,1.11,0,0,0,543.67,178.66Z"/><path class="cls-5" d="M546.66,184a7.74,7.74,0,1,0,10.46-3.2A7.75,7.75,0,0,0,546.66,184Zm11.72,6.22a5.53,5.53,0,1,1-2.29-7.47A5.53,5.53,0,0,1,558.38,190.24Z"/><path class="cls-5" d="M550.57,186.09a3.32,3.32,0,1,0,4.48-1.37A3.32,3.32,0,0,0,550.57,186.09Zm3.91,2.07a1.11,1.11,0,1,1-.46-1.49A1.11,1.11,0,0,1,554.47,188.16Z"/><path class="cls-5" d="M1190.56,250.19a.85.85,0,0,0-1.61.54v0c.73,2,.76,3.57.07,4.24s-2.87.51-5.45-.79a36.24,36.24,0,0,1-9.24-7.18c-6.5-6.77-9.11-13.33-7.39-15a2.31,2.31,0,0,1,1.92-.41.85.85,0,0,0,.2-1.68,3.9,3.9,0,0,0-3.3.87c-3.16,3,1.42,11.23,7.34,17.39a37.89,37.89,0,0,0,9.7,7.52,16.69,16.69,0,0,0,2,.86l-6.06,2.16a24,24,0,0,1-14.79-19,.85.85,0,0,0-1.68.23,25.65,25.65,0,0,0,14.17,19.56l-10,3.55a.83.83,0,0,0-.17-.2,11.8,11.8,0,0,1-4.21-8.29l-.3-4.77a.84.84,0,0,0-.88-.8h0a.85.85,0,0,0-.8.9h0l.31,4.77a13.5,13.5,0,0,0,4.31,9l-7.12,2.54,1.37-5.19a.85.85,0,1,0-1.64-.43l-1.79,6.74a.85.85,0,0,0,1.1,1l31.57-11.24.14-.09a3.29,3.29,0,0,0,1.82-.86C1191.06,255.4,1191.82,253.68,1190.56,250.19Z"/><path class="cls-5" d="M1198.6,248.16a27.9,27.9,0,0,0-14.32-1.68l-3,.45a.85.85,0,0,0,.25,1.68l3-.44a26.18,26.18,0,0,1,13.45,1.58.87.87,0,0,0,.3.06.85.85,0,0,0,.33-1.63Z"/><path class="cls-5" d="M1201.86,235.1a.85.85,0,0,0-1.12-.42l-18,8.12a.85.85,0,0,0-.42,1.12h0a.85.85,0,0,0,1.12.42h0l18-8.12A.85.85,0,0,0,1201.86,235.1Z"/><path class="cls-5" d="M1177,223.77a.85.85,0,1,0-1.67.3v0a23.7,23.7,0,0,1-1.55,14.3l-1.29,2.93a.85.85,0,0,0,.43,1.11.83.83,0,0,0,.32.07.85.85,0,0,0,.79-.51l1.29-2.93A25.38,25.38,0,0,0,1177,223.77Z"/><path class="cls-5" d="M1202.52,249a2.54,2.54,0,1,0,2.49,2.59A2.54,2.54,0,0,0,1202.52,249Zm-.07,3.39a.85.85,0,1,1,.86-.83A.85.85,0,0,1,1202.45,252.42Z"/><path class="cls-5" d="M1182.66,224.91a2.54,2.54,0,1,0,2.49,2.59A2.54,2.54,0,0,0,1182.66,224.91Zm-.07,3.39a.85.85,0,1,1,.86-.83A.85.85,0,0,1,1182.59,228.3Z"/><circle class="cls-5" cx="1175.13" cy="219.68" r="1.69" transform="translate(932.33 1390.25) rotate(-88.87)"/><path class="cls-5" d="M1198.8,222.69a.85.85,0,0,0-.86.83l0,.85a.85.85,0,0,0,1.69,0l0-.85A.85.85,0,0,0,1198.8,222.69Z"/><path class="cls-5" d="M1198.88,218.45a.85.85,0,0,0-.86.83l0,.85a.85.85,0,1,0,1.69,0l0-.85A.85.85,0,0,0,1198.88,218.45Z"/><path class="cls-5" d="M1201.37,221l-.85,0a.85.85,0,1,0,0,1.69l.85,0a.85.85,0,1,0,0-1.69Z"/><path class="cls-5" d="M1197.14,221l-.85,0a.85.85,0,1,0,0,1.69l.85,0a.85.85,0,1,0,0-1.69Z"/><path class="cls-5" d="M1192.77,227.64l-4.25-.08a.85.85,0,0,0-.86.83l-.08,4.25a.85.85,0,0,0,.83.86l4.25.08a.85.85,0,0,0,.86-.83l.08-4.25A.85.85,0,0,0,1192.77,227.64Zm-.93,4.24-2.56-.05.05-2.56,2.56.05Z"/><path class="cls-5" d="M1186.46,234.59a.85.85,0,0,0-1.17-.08l-8.62,7.46a.85.85,0,0,0,1.11,1.28l8.62-7.46A.85.85,0,0,0,1186.46,234.59Z"/><path class="cls-5" d="M1201.89,238a.85.85,0,0,0-.86.83l0,.85a.85.85,0,0,0,1.69,0l0-.85A.85.85,0,0,0,1201.89,238Z"/><path class="cls-5" d="M1205.48,237.93l-.59-.61a.85.85,0,0,0-1.22,1.17l.59.61a.85.85,0,0,0,1.22-1.17Z"/><path class="cls-5" d="M1206.19,234.7l-.85,0a.85.85,0,1,0,0,1.69l.85,0a.85.85,0,1,0,0-1.69Z"/><path class="cls-5" d="M1205.58,231.94a.85.85,0,0,0-1.18,0l-.61.59a.85.85,0,0,0,.57,1.46h0a.85.85,0,0,0,.6-.24l.61-.59A.85.85,0,0,0,1205.58,231.94Z"/><path class="cls-5" d="M1202,230.38a.85.85,0,0,0-.86.83l0,.85a.85.85,0,1,0,1.69,0l0-.85A.85.85,0,0,0,1202,230.38Z"/><path class="cls-5" d="M1200.2,232.43l-.59-.61a.85.85,0,0,0-1.22,1.17l.59.61a.85.85,0,0,0,1.22-1.17Z"/><path class="cls-5" d="M1166.58,221.48a.85.85,0,0,0-.67-.59l-2.48-.41-1.06-2.27a.88.88,0,0,0-1.52,0l-1.16,2.23-2.49.31a.85.85,0,0,0-.5,1.43l1.76,1.79-.47,2.47a.85.85,0,0,0,1.21.92l2.25-1.13,2.2,1.21a.85.85,0,0,0,1.25-.87l-.37-2.48,1.83-1.72A.85.85,0,0,0,1166.58,221.48Zm-3.55,1.65a.85.85,0,0,0-.26.74l.19,1.23-1.09-.6a.85.85,0,0,0-.79,0L1160,225l.23-1.22a.85.85,0,0,0-.22-.75l-.87-.88,1.23-.15a.85.85,0,0,0,.65-.45l.57-1.1.53,1.12a.85.85,0,0,0,.63.48l1.22.2Z"/><path class="cls-5" d="M1203.66,261h0l-.34-.53a12.78,12.78,0,0,0-8.4-5.67.85.85,0,0,0-.31,1.66,11.08,11.08,0,0,1,6.39,3.73,5,5,0,0,0-3.43,2.26,3.39,3.39,0,0,0,5.85,3.42,4.91,4.91,0,0,0,.59-2.16,4.14,4.14,0,0,1,.1,4.4.85.85,0,1,0,1.44.89l0,0A5.91,5.91,0,0,0,1203.66,261Zm-1.7,4a1.69,1.69,0,0,1-2.93-1.7h0a3.17,3.17,0,0,1,2.32-1.45.86.86,0,0,1,.42.11C1202.48,262.41,1202.48,264.14,1202,265Z"/><path class="cls-5" d="M986.57,156.11a1,1,0,1,0,1.31.5A1,1,0,0,0,986.57,156.11Z"/><path class="cls-5" d="M963.69,139a1,1,0,0,0-.5,1.31l7.71,17.33a1,1,0,0,0,1.81-.81L965,139.51A1,1,0,0,0,963.69,139Z"/><path class="cls-5" d="M970.95,135.77a1,1,0,0,0-.5,1.31l7.71,17.33a1,1,0,1,0,1.81-.81l-7.71-17.33A1,1,0,0,0,970.95,135.77Z"/><path class="cls-5" d="M987.6,124.1l-4.54,2-1.22-2.75a4.95,4.95,0,0,0-5.3-7.27,6.76,6.76,0,0,1-7.29.94,4.9,4.9,0,0,0-1.56,1.1,8.89,8.89,0,0,0-11.76,7,9,9,0,0,0-5,12L955.72,148a3,3,0,0,0,4,1.49,3,3,0,0,0,.88-.6L968,165.54a5,5,0,0,0,6.56,2.52L992.69,160a5,5,0,0,0,2.52-6.56L994,150.71l4.54-2a5,5,0,0,0,2.52-6.56l-6.9-15.52A5,5,0,0,0,987.6,124.1ZM993,153.33l-2.77,1.23a1,1,0,1,0,.8,1.81l2.61-1.16a3,3,0,0,1-1.76,3l-18.15,8.07a3,3,0,0,1-3.37-.67l13.41-6a1,1,0,1,0-.81-1.81l-13.57,6-8.15-18.32-2.85-6.4a6.9,6.9,0,0,0,3.18-5.6.74.74,0,0,1,.57,0,6,6,0,0,0,7.69-3.54.33.33,0,0,1,.17-.19c1.41-.63,2.47-.74,3.15-.33a3.33,3.33,0,0,1,1.1,1.57l1.63,3.67a3,3,0,0,0,3,1.76l6.57,14.77a1,1,0,0,0,1.81-.81l-6.57-14.77a3,3,0,0,0,.67-3.37l-2.84-6.39a5.27,5.27,0,0,0,1.91-.85ZM977.07,124a1,1,0,0,0-1,1.4l3.41,7.66a1,1,0,1,1-1.81.81l-1.63-3.67a5.06,5.06,0,0,0-1.88-2.46c-1.27-.77-2.94-.7-5,.21a2.32,2.32,0,0,0-1.23,1.32,4,4,0,0,1-5.12,2.36,2.72,2.72,0,0,0-2.07.07,2,2,0,0,0-1.18,1.74,4.92,4.92,0,0,1-2.88,4.34,1,1,0,0,0-.5,1.31l3.21,7.22a1.07,1.07,0,0,1-.53,1.37,1,1,0,0,1-1.36-.48l-4.84-10.89a7,7,0,0,1,3.57-9.18,7.08,7.08,0,0,1,.85-.31,1,1,0,0,0,.7-.86,6.91,6.91,0,0,1,9.77-5.69,1,1,0,0,0,1.23-.35,2.87,2.87,0,0,1,1.23-1,3,3,0,0,1,3.38.68,1,1,0,0,0,1.56-.15,3,3,0,0,1,4.88-.23A3.05,3.05,0,0,1,977.07,124Zm8.42,7.57,3.63-1.61,6.1,13.7-3.63,1.61Zm13.76,11.38a3,3,0,0,1-1.51,3.93l-4.54,2-.81-1.81,4.54-2a1,1,0,0,0,.5-1.31l-6.9-15.52a1,1,0,0,0-1.31-.5l-4.54,2-.81-1.81,4.54-2a3,3,0,0,1,3.93,1.51Z"/><path class="cls-5" d="M294.15,234.23a1.11,1.11,0,0,0-1.06-.8l-10.9,0h-4.11a1.11,1.11,0,0,0-1.06.79,32.11,32.11,0,0,0-1.36,8.95c0,4.93,1.23,8.81,3.65,11.24a8.45,8.45,0,0,0,5,2.47l-.09,15.47H278.2a1.11,1.11,0,0,0,0,2.21l7.15,0,7.17,0a1.11,1.11,0,0,0,0-2.21h-6l.09-15.47a8.7,8.7,0,0,0,1.17-.23c4.76-1.27,7.63-6.32,7.67-13.51A31.92,31.92,0,0,0,294.15,234.23Zm-1,8.93c0,6.14-2.29,10.39-6,11.39a6.7,6.7,0,0,1-1.71.22,6.32,6.32,0,0,1-4.59-1.89,11.15,11.15,0,0,1-2.81-6.47,26,26,0,0,0,4.14-.76,47.56,47.56,0,0,0,5.67-2,23.49,23.49,0,0,1,5.3-1.7Q293.2,242.56,293.2,243.16Zm-.19-3.42a24.67,24.67,0,0,0-6,1.86,32.42,32.42,0,0,1-9.17,2.6q0-.49,0-1a29.81,29.81,0,0,1,1-7.54h1.82c-.15.67-.27,1.36-.36,1.91a1.11,1.11,0,1,0,2.18.35c.14-.87.29-1.65.45-2.27l9.24,0A30.09,30.09,0,0,1,293,239.74Z"/><path class="cls-5" d="M325.1,264h0l-6.18,3.52Z"/><path class="cls-5" d="M318.92,267.54l0,0Z"/><path class="cls-5" d="M331.72,259a1.11,1.11,0,0,0-1.51-.41l-5.27,3-7.77-13.38a8.45,8.45,0,0,0,3.14-4.65c.89-3.3.05-7.3-2.42-11.56a32.12,32.12,0,0,0-5.63-7.09,1.11,1.11,0,0,0-1.31-.16l-13,7.43a1.11,1.11,0,0,0-.53,1.22,32.06,32.06,0,0,0,2.92,7.61l.05.1.38.68c3.61,6.22,8.61,9.18,13.38,7.91h0a8.69,8.69,0,0,0,1.13-.39L323,262.65l-5.25,3a1.11,1.11,0,1,0,1.09,1.92L325.1,264h0l6.21-3.54A1.11,1.11,0,0,0,331.72,259Zm-32-25.32,11.58-6.6a29.81,29.81,0,0,1,4.65,6q.54.93,1,1.84a14.84,14.84,0,0,0-2,.48c-.32-.75-.71-1.52-1-2.12a1.11,1.11,0,1,0-2,1c.35.67.65,1.29.89,1.83l-1.42.57a31,31,0,0,1-9.49,2.64A30,30,0,0,1,299.76,233.64Zm13.81,13.88h0c-3.55.94-7.39-1.32-10.41-6.09a25.84,25.84,0,0,0,3.47-.68,46.12,46.12,0,0,0,5.67-2A21.34,21.34,0,0,1,317.8,237a10.4,10.4,0,0,1,.39,5.93,6.32,6.32,0,0,1-3,3.92A6.69,6.69,0,0,1,313.56,247.52Z"/><path class="cls-5" d="M292.63,222a1.11,1.11,0,0,0-.78,1.35l.74,2.79a1.11,1.11,0,0,0,2.14-.57l-.74-2.79A1.11,1.11,0,0,0,292.63,222Z"/><path class="cls-5" d="M290.56,228.13l-2.06-2a1.11,1.11,0,0,0-1.56,1.57l2.06,2a1.11,1.11,0,0,0,1.56-1.57Z"/><path class="cls-5" d="M299.61,222.73a1.11,1.11,0,0,0-1.36.77l-.77,2.79a1.11,1.11,0,1,0,2.13.59l.77-2.79A1.11,1.11,0,0,0,299.61,222.73Z"/><path class="cls-5" d="M312.36,230.53h0a1.11,1.11,0,0,0-1.88,1.17v0a1.11,1.11,0,0,0,1.87-1.19Z"/><circle class="cls-5" cx="280.95" cy="240.86" r="1.11" transform="matrix(0.97, -0.26, 0.26, 0.97, -52.51, 80.39)"/><path class="cls-6" d="M992.34,246.7l4.91-8.44a1.44,1.44,0,0,0-.93-2.13l-29.78-6.64a1.44,1.44,0,0,0-1.56.68l-4.91,8.45h0l-9.39,16.15a10.13,10.13,0,0,0-9.87-5.52,5.81,5.81,0,0,0-4.88,8.38,10.1,10.1,0,0,0,10,5.82,6,6,0,0,0,4.7-2.88L962,241l26.84,6-8.39,14.42a10.13,10.13,0,0,0-9.87-5.52,5.81,5.81,0,0,0-4.88,8.38,10.1,10.1,0,0,0,10,5.82,6,6,0,0,0,4.7-2.88l11.91-20.47Zm-50.89,12.94c-2.59-1.51-3.9-4.28-2.86-6.05s4.09-2,6.68-.5,3.9,4.28,2.86,6.05S944,261.14,941.46,259.63Zm22.09-21.27,3.4-5.84,26.83,6-3.4,5.84Zm7.72,27.88c-2.59-1.51-3.9-4.28-2.86-6.05s4.09-2,6.68-.5,3.9,4.28,2.86,6.05S973.85,267.74,971.27,266.24Z"/><path class="cls-5" d="M712.09,219.82a1.37,1.37,0,0,0-1.11-.31,175,175,0,0,1-54.14,0,1.37,1.37,0,0,0-1.6,1.36v10.91a.89.89,0,0,0,1.79,0V221.36a177,177,0,0,0,53.76,0v10.42a.89.89,0,1,0,1.79,0V220.87A1.37,1.37,0,0,0,712.09,219.82Z"/><path class="cls-5" d="M711.68,235.05a.89.89,0,0,0-.89.89v10.42a177,177,0,0,0-53.76,0V235.94a.89.89,0,1,0-1.79,0v10.9a1.37,1.37,0,0,0,1.37,1.37l.22,0a175,175,0,0,1,54.14,0,1.37,1.37,0,0,0,1.6-1.36v-10.9A.89.89,0,0,0,711.68,235.05Z"/><path class="cls-5" d="M708.41,224.11a1.72,1.72,0,0,0-1.35-.41,179,179,0,0,1-46.3,0,1.72,1.72,0,0,0-1.94,1.71v16.92a1.72,1.72,0,0,0,1.72,1.72h.22a179,179,0,0,1,46.3,0,1.72,1.72,0,0,0,1.94-1.71V225.4A1.72,1.72,0,0,0,708.41,224.11Zm-24.5,16.62a186.56,186.56,0,0,0-23.3,1.51V225.48a180.77,180.77,0,0,0,46.6,0v16.76A186.54,186.54,0,0,0,683.91,240.73Z"/><path class="cls-5" d="M713.28,265.45H712v-4.61a3.88,3.88,0,0,0-3.88-3.88h-1.53v-2.49a3.88,3.88,0,0,0-3.88-3.88h-4.91a3.87,3.87,0,0,1-6,0H686.9a3.87,3.87,0,0,1-6,0H676a3.87,3.87,0,0,1-6,0h-4.91a3.88,3.88,0,0,0-3.88,3.88V257h-1.58a3.88,3.88,0,0,0-3.88,3.88v4.61h-1.3a1.12,1.12,0,0,0-1.12,1.12v2.66a1.12,1.12,0,0,0,1.12,1.12h58.75a1.12,1.12,0,0,0,1.12-1.12v-2.66A1.12,1.12,0,0,0,713.28,265.45Zm-7.63-6.69h2.43a2.09,2.09,0,0,1,2.09,2.09v4.61h-9.08v-4.61c0-.06,0-.11,0-.17s0-.09,0-.13v-.07l0-.12,0-.08,0-.12,0-.07,0-.11,0-.07.06-.11,0-.06.07-.11,0-.05.08-.1,0,0,.1-.1,0,0,.11-.09,0,0,.12-.08,0,0,.13-.07,0,0,.13-.06.06,0,.13,0,.07,0,.12,0,.1,0h2.78Zm-10-4.28a2.09,2.09,0,0,1,2.09-2.09h4.91a2.09,2.09,0,0,1,2.09,2.09V257h-2.07l-.16,0h0l-.17,0h0l-.18,0h0a2.07,2.07,0,0,1-3.8,0h0l-.18,0h0l-.17,0h0l-.16,0h-2v-2.49Zm-.89,4.28h2.73l.1,0,.12,0,.07,0,.13,0,.05,0,.13.06,0,0,.13.07,0,0,.12.08,0,0,.11.09,0,0,.1.1,0,0,.08.1,0,.05.07.11,0,.06.06.11,0,.07,0,.11,0,.08,0,.11,0,.08,0,.12v.08s0,.08,0,.13,0,.11,0,.17v4.61h-9.08v-4.61c0-.06,0-.11,0-.17s0-.09,0-.13v-.07l0-.12,0-.08,0-.12,0-.07,0-.11,0-.07.06-.11,0-.06.07-.11,0-.05.08-.1,0,0,.1-.1,0,0,.11-.09,0,0,.12-.08,0,0,.13-.07,0,0,.13-.06.06,0,.13,0,.07,0,.12,0,.1,0h2.78Zm-7.89-6.36h4.91a2.09,2.09,0,0,1,2.09,2.09V257h-2.07l-.16,0h0l-.17,0h0l-.18,0h0a2.07,2.07,0,0,1-3.8,0h0l-.18,0h0l-.17,0h0l-.16,0h-2v-2.49h0A2.09,2.09,0,0,1,686.9,252.39Zm-3,6.36h2.73l.1,0,.12,0,.07,0,.13,0,.05,0,.13.06,0,0,.13.07,0,0,.12.08,0,0,.11.09,0,0,.1.1,0,0,.08.1,0,.05.07.11,0,.06.06.11,0,.07,0,.11,0,.08,0,.11,0,.08,0,.12v.08s0,.08,0,.13,0,.11,0,.17v4.61h-9.08v-4.61c0-.06,0-.12,0-.18h0a2.1,2.1,0,0,1,1.68-1.86h.05l.14,0h2.68Zm-10-4.28a2.09,2.09,0,0,1,2.09-2.09h4.91a2.09,2.09,0,0,1,2.09,2.09V257h-2l-.16,0h0a3.3,3.3,0,0,1-5.34,0h-1.56v-2.49Zm-.89,4.28h2.43a2.09,2.09,0,0,1,2.09,2.09v4.61h-9.08v-4.61c0-.06,0-.12,0-.18h0a2.1,2.1,0,0,1,1.68-1.86h.05l.14,0h2.68Zm-10-4.28a2.09,2.09,0,0,1,2.09-2.09h4.91a2.09,2.09,0,0,1,2.09,2.09V257h-2l-.16,0h0a3.3,3.3,0,0,1-5.34,0h-1.56Zm-5.46,6.36a2.09,2.09,0,0,1,2.09-2.09h4.91a2.09,2.09,0,0,1,2.09,2.09v4.61h-9.08Zm55,7.72H655.2v-1.32h57.41v1.32Z"/><path class="cls-8" d="M386.85,145.82a3.68,3.68,0,0,0-3.08.24l-3.1,1.74-.54-1a2.5,2.5,0,0,0-3.4-1l-21,11.81a2.5,2.5,0,0,0-1,3.4l.54,1-3.1,1.74a3.68,3.68,0,0,0-1.81,2.51,3.64,3.64,0,0,0,.72,3,19,19,0,0,0,15.09,7.11,25.11,25.11,0,0,0,2.95,2,14.83,14.83,0,0,0,9.09,2.27,5.38,5.38,0,0,1-.8,7h0a1.18,1.18,0,0,0-.23,1.44l2.65,4.71-1.9,1.07a3.53,3.53,0,0,0-1.35,4.81l1.37,2.43a1.18,1.18,0,0,0,1.6.45l23.2-13a1.18,1.18,0,0,0,.45-1.6l-1.37-2.43a3.53,3.53,0,0,0-4.81-1.35l-1.9,1.07-2.65-4.71a1.18,1.18,0,0,0-1.35-.55h0a5.37,5.37,0,0,1-6.46-3,14.91,14.91,0,0,0,2.71-8.85,25.12,25.12,0,0,0-.18-3.56A19,19,0,0,0,389,148,3.63,3.63,0,0,0,386.85,145.82ZM353,167.8a1.27,1.27,0,0,1-.25-1,1.33,1.33,0,0,1,.65-.91l3.1-1.74,1.06,1.89a37,37,0,0,0,5.84,7.83A16.67,16.67,0,0,1,353,167.8Zm45.25,18.44a1.18,1.18,0,0,1,1.6.45l.79,1.4L379.47,200l-.79-1.4a1.18,1.18,0,0,1,.45-1.6ZM391,182.73l2.07,3.68-11.19,6.29L379.86,189Zm-9.65,2.72a7.79,7.79,0,0,0,.18-1.3,7.66,7.66,0,0,0-.92-4.12,9.23,9.23,0,0,0,2.29-1.31,7.75,7.75,0,0,0,4.26,3.45l-5.82,3.27Zm-.56-32.56a30.41,30.41,0,0,1,4.23,15.17c-.11,4.51-1.67,7.84-4.41,9.37s-6.39,1.15-10.3-1.1a30.41,30.41,0,0,1-10.77-11.5l-2.76-4.91a.14.14,0,0,1,.05-.19l21-11.81a.14.14,0,0,1,.19.05Zm6-4.11a16.67,16.67,0,0,1-.26,12,37,37,0,0,0-3.66-9.06l-1.06-1.89,3.1-1.74A1.33,1.33,0,0,1,386,148,1.27,1.27,0,0,1,386.8,148.79Z"/><path class="cls-8" d="M378.38,158.82a1.18,1.18,0,0,0-1.22-.23l-3.35,1.29-3-2a1.18,1.18,0,0,0-1.84,1l.19,3.58-2.84,2.19a1.18,1.18,0,0,0,.42,2.07l3.47.92,1.2,3.38a1.18,1.18,0,0,0,2.1.24l2-3,3.59-.1a1.18,1.18,0,0,0,.88-1.92l-2.26-2.79,1-3.44A1.18,1.18,0,0,0,378.38,158.82Zm-3.11,4.57a1.18,1.18,0,0,0,.22,1.07l1.15,1.42-1.82.05a1.18,1.18,0,0,0-1,.54l-1,1.53-.61-1.72a1.18,1.18,0,0,0-.81-.74l-1.76-.47,1.44-1.11a1.18,1.18,0,0,0,.46-1l-.1-1.82,1.5,1a1.18,1.18,0,0,0,1.09.13l1.7-.66Z"/><path class="cls-5" d="M895.67,222.43a2.94,2.94,0,0,0-3.42-2.35l-24.63,4.56-.23-1.26a2.94,2.94,0,1,0-1.84.34l.23,1.26-24.63,4.56a2.94,2.94,0,0,0,.12,5.79l6.41,34.61a2.94,2.94,0,0,0,3.42,2.35l47.18-8.73a2.94,2.94,0,0,0,2.35-3.42l-6.41-34.61A2.94,2.94,0,0,0,895.67,222.43Zm-29.91-2.66a1.06,1.06,0,1,1-.85,1.24A1.06,1.06,0,0,1,865.76,219.77Zm32.16,42-47.18,8.73a1.06,1.06,0,0,1-1.24-.85l-6.38-34.46L892.39,226l6.38,34.46A1.06,1.06,0,0,1,897.92,261.72ZM893,224l-51.11,9.46a1.06,1.06,0,1,1-.39-2.09l51.11-9.46A1.06,1.06,0,0,1,893,224Z"/><path class="cls-5" d="M865.41,258.19l14.74-21.43.5,2.69a.94.94,0,1,0,1.84-.34l-.91-4.91a.94.94,0,0,0-1.09-.75l-4.91.91a.94.94,0,1,0,.34,1.84l2.69-.5-14.74,21.43,0,0a2.94,2.94,0,1,0,1.54,1.06l0,0ZM863.23,261a1.06,1.06,0,1,1,.85-1.24A1.06,1.06,0,0,1,863.23,261Z"/><path class="cls-5" d="M857.26,243.43a.94.94,0,0,0,1.3-.24l1.07-1.56,1.56,1.07a.94.94,0,0,0,1.06-1.54l-1.56-1.07,1.07-1.56a.94.94,0,0,0-1.54-1.06L859.16,239,857.6,238a.94.94,0,0,0-1.06,1.54l1.56,1.07L857,242.13a.94.94,0,0,0,.24,1.3Z"/><path class="cls-5" d="M867.09,241.61a.94.94,0,0,0,1.3-.24l1.07-1.56,1.56,1.07a.94.94,0,1,0,1.06-1.54l-1.56-1.07,1.07-1.56a.94.94,0,1,0-1.54-1.06L869,237.21l-1.56-1.07a.94.94,0,1,0-1.06,1.54l1.56,1.07-1.07,1.56a.94.94,0,0,0,.24,1.3Z"/><path class="cls-5" d="M859.08,253.26a.94.94,0,0,0,1.3-.24l1.07-1.56,1.56,1.07a.94.94,0,0,0,1.06-1.54l-1.56-1.07,1.07-1.56A.94.94,0,1,0,862,247.3L861,248.85l-1.56-1.07a.94.94,0,1,0-1.06,1.54l1.56,1.07L858.84,252a.94.94,0,0,0,.24,1.3Z"/><path class="cls-5" d="M884.83,253.25a.94.94,0,0,0-1.3.24L882.45,255,880.89,254a.94.94,0,1,0-1.06,1.54l1.56,1.07-1.07,1.56a.94.94,0,1,0,1.54,1.06l1.07-1.56,1.56,1.07a.94.94,0,1,0,1.06-1.54L884,256.11l1.07-1.56a.94.94,0,0,0-.24-1.3Z"/><path class="cls-5" d="M875,255.06a.94.94,0,0,0-1.3.24l-1.07,1.56-1.56-1.07a.94.94,0,1,0-1.06,1.54l1.56,1.07L870.49,260A.94.94,0,1,0,872,261l1.07-1.56,1.56,1.07a.94.94,0,1,0,1.06-1.54l-1.56-1.07,1.07-1.56a.94.94,0,0,0-.24-1.3Z"/><path class="cls-5" d="M883,243.42a.94.94,0,0,0-1.3.24l-1.07,1.56-1.56-1.07a.94.94,0,0,0-1.06,1.54l1.56,1.07-1.07,1.56a.94.94,0,1,0,1.54,1.06l1.07-1.56,1.56,1.07a.94.94,0,1,0,1.06-1.54l-1.56-1.07,1.07-1.56a.94.94,0,0,0-.24-1.3Z"/><path class="cls-7" d="M601,242.54l-.12-1.87a3.89,3.89,0,0,0-7.17-1.7l-.94,1.62a10.06,10.06,0,0,0-1.35,4.47,4.38,4.38,0,0,0,1.49,3.49l-3.73,13.12a2.68,2.68,0,0,0,.18,2.19,3,3,0,0,0,4,1.15l.23-.14a2.65,2.65,0,0,0,1.13-1.82l2.55-13.45a4.38,4.38,0,0,0,2.9-2.45A10.06,10.06,0,0,0,601,242.54Zm-2.36,3.93a2.69,2.69,0,0,1-2.18,1.57.85.85,0,0,0-.73.68L593,262.79a1,1,0,0,1-.42.69,1.31,1.31,0,0,1-1.79-.42,1,1,0,0,1-.05-.86l3.9-13.72a.85.85,0,0,0-.34-.94,2.69,2.69,0,0,1-1.25-2.38,8.36,8.36,0,0,1,1.12-3.71l.94-1.62a2.2,2.2,0,0,1,4,.95l.12,1.87A8.37,8.37,0,0,1,598.6,246.47Z"/><path class="cls-7" d="M589.2,235.22a.85.85,0,0,0-1,.63l-1.67,7.08-2.76,1.7a.85.85,0,0,0-.39.57l-2.69,14.6a1.15,1.15,0,0,1-.51.77,1.19,1.19,0,0,1-1.64-.38h0a1.15,1.15,0,0,1-.11-.91L582.53,245a.85.85,0,0,0-.09-.68l-1.71-2.76,1.67-7.08a.85.85,0,0,0-1.65-.39L579,241.51a.85.85,0,0,0,.1.64l1.69,2.74-4,13.9a2.86,2.86,0,0,0,5.5,1.59q0-.13.06-.27L585,245.88l2.74-1.69a.85.85,0,0,0,.38-.53l1.76-7.42A.85.85,0,0,0,589.2,235.22Z"/><path class="cls-7" d="M584.25,234a.85.85,0,0,0-1,.63l-1.56,6.6a.85.85,0,0,0,1.65.39l1.56-6.6A.85.85,0,0,0,584.25,234Z"/><path class="cls-7" d="M586.73,234.63a.85.85,0,0,0-1,.63l-1.56,6.6a.85.85,0,1,0,1.65.39l1.56-6.6A.85.85,0,0,0,586.73,234.63Z"/><path class="cls-7" d="M594.6,223.43A25.43,25.43,0,1,0,613.49,254,25.43,25.43,0,0,0,594.6,223.43Zm-11.31,47.84a23.73,23.73,0,1,1,28.56-17.63A23.73,23.73,0,0,1,583.29,271.27Z"/><path class="cls-7" d="M587.77,264.29a.85.85,0,0,0-.73-1h0a15.57,15.57,0,0,1-3.5-.83.85.85,0,1,0-.58,1.59,17.17,17.17,0,0,0,3.88.92A.85.85,0,0,0,587.77,264.29Z"/><path class="cls-7" d="M603.88,240.53a.85.85,0,0,0-1.14-.38h0a.85.85,0,0,0-.37,1.14,15.26,15.26,0,0,1-5.62,19.87.85.85,0,1,0,.89,1.44A17,17,0,0,0,603.88,240.53Z"/><path class="cls-7" d="M586.5,233h0Z"/><path class="cls-7" d="M596.43,233.06a17.1,17.1,0,0,0-9.85-1.7.85.85,0,1,0,.21,1.68,15.4,15.4,0,0,1,8.87,1.53.85.85,0,1,0,.77-1.51Z"/><path class="cls-7" d="M575.76,256.16a15.25,15.25,0,0,1,3.05-19.56.85.85,0,0,0-1.08-1.3l0,0a17,17,0,0,0-3.39,21.74.85.85,0,1,0,1.44-.89Z"/><path class="cls-5" d="M941,201.52l-2.71-.81,2.81-9.41a4,4,0,0,0-2.68-5l-1.18-.35,2.93-9.81a3.57,3.57,0,0,0-2.4-4.44l-9.53-2.84,2.35-7.89a.84.84,0,0,0-.56-1l-1.38-.41.36-1.2a2.76,2.76,0,0,0,2.59-2c.37-1.23-.66-3.5-1-4.16a.84.84,0,0,0-1.18-.35c-.64.38-2.74,1.71-3.11,2.94a2.76,2.76,0,0,0,1.09,3.06l-.36,1.2-1.38-.41a.84.84,0,0,0-1,.56l-2.35,7.89-9.53-2.84a3.57,3.57,0,0,0-4.44,2.4l-2.11,7.08a.84.84,0,1,0,1.61.48l2.11-7.08a1.89,1.89,0,0,1,2.35-1.27l25,7.47a1.89,1.89,0,0,1,1.27,2.35l-2.93,9.81-29.47-8.8-2-.59a4,4,0,0,0-5,2.68l-2,6.6a.84.84,0,1,0,1.61.48l2-6.6a2.31,2.31,0,0,1,2.87-1.55l2,.59,30.27,9,2,.59a2.31,2.31,0,0,1,1.55,2.87l-2.81,9.41-39.46-11.78-3.52-1a.84.84,0,0,0-1,.56,5.49,5.49,0,0,0,3.68,6.82l38.41,11.46a5.49,5.49,0,0,0,6.82-3.68A.84.84,0,0,0,941,201.52Zm-13.08-46.23a5.1,5.1,0,0,1,1.56-1.46,5.1,5.1,0,0,1,.51,2.07,1.08,1.08,0,0,1-2.06-.62Zm-1.29,13.13-2.77-.83,2.11-7.08,2.77.83Zm8.6,36.22-38.41-11.46a3.81,3.81,0,0,1-2.71-3.9l2.62.78,40.27,12,2.62.78A3.81,3.81,0,0,1,935.21,204.64Z"/><path class="cls-5" d="M935.67,175.43a3.87,3.87,0,0,0-3,.63c-.76.4-1.25.63-1.66.5s-.59-.56-.88-1.25a3.33,3.33,0,0,0-1.9-2.19,3.62,3.62,0,0,0-2.93.6c-.78.42-1.3.66-1.8.51h0c-.49-.15-.78-.63-1.18-1.41a3.76,3.76,0,0,0-2.12-2.18h0a3.84,3.84,0,0,0-3.09.77c-.75.45-1.23.71-1.67.58h0c-.43-.13-.69-.62-1.05-1.4a3.59,3.59,0,0,0-2-2.26h0a.84.84,0,0,0-.48,1.61h0c.41.12.65.59,1,1.36a3.66,3.66,0,0,0,2.09,2.29h0a3.72,3.72,0,0,0,3-.75c.77-.47,1.28-.74,1.76-.6s.73.6,1.12,1.35a3.85,3.85,0,0,0,2.19,2.24h0a4,4,0,0,0,3.07-.64c.72-.38,1.19-.61,1.59-.49h0c.39.13.59.56.88,1.25a3.33,3.33,0,0,0,1.9,2.19,3.74,3.74,0,0,0,3-.61c.78-.41,1.28-.66,1.74-.51a.84.84,0,1,0,.51-1.6Z"/><path class="cls-5" d="M937.14,190.37A3.89,3.89,0,0,0,934,191a2.88,2.88,0,0,1-2,.57c-.48-.15-.71-.61-1.06-1.35a3.67,3.67,0,0,0-2.12-2.28h0a4.22,4.22,0,0,0-3.21.69c-.73.39-1.36.72-1.88.55s-.68-.63-1-1.41a3.58,3.58,0,0,0-2-2.35,3.89,3.89,0,0,0-3.14.65,2.86,2.86,0,0,1-2,.57h0c-.57-.17-.89-.71-1.34-1.58a4.06,4.06,0,0,0-2.28-2.35h0a4.14,4.14,0,0,0-3.32.84c-.84.5-1.38.8-1.89.65h0c-.51-.15-.79-.7-1.2-1.57a3.86,3.86,0,0,0-2.21-2.43.84.84,0,0,0-.48,1.61h0c.48.14.76.67,1.16,1.53a3.94,3.94,0,0,0,2.24,2.47h0a4,4,0,0,0,3.23-.81c.87-.52,1.43-.82,2-.66h0c.53.16.83.68,1.27,1.52a4.15,4.15,0,0,0,2.35,2.41h0a4.27,4.27,0,0,0,3.3-.7c.82-.44,1.35-.69,1.82-.54s.68.63,1,1.41a3.58,3.58,0,0,0,2,2.35,4,4,0,0,0,3.19-.66c.75-.4,1.4-.75,2-.56s.76.63,1.11,1.39a3.6,3.6,0,0,0,2.08,2.24h0a4.27,4.27,0,0,0,3.3-.7c.82-.44,1.35-.69,1.82-.54a.84.84,0,1,0,.53-1.59Z"/><path class="cls-5" d="M1050.3,159.23a8.46,8.46,0,0,1,1.59.71.82.82,0,1,0,.82-1.42,10.1,10.1,0,0,0-1.9-.85.82.82,0,1,0-.51,1.56Z"/><path class="cls-5" d="M1055.85,168a16.91,16.91,0,0,1-.42,3.71.82.82,0,0,0,.62,1l.18,0a.82.82,0,0,0,.8-.64,18.55,18.55,0,0,0,.46-4.07,11.55,11.55,0,0,0-2.07-7.08.82.82,0,1,0-1.31,1,10,10,0,0,1,1.75,6.1Z"/><path class="cls-5" d="M1044,180.5a14.1,14.1,0,0,1-4.87-7.12.82.82,0,0,0-1.56.51,15.55,15.55,0,0,0,5.5,8,.82.82,0,1,0,.92-1.35Z"/><path class="cls-5" d="M1072.63,167a13.94,13.94,0,0,0-9.84-3.77,16.15,16.15,0,0,0-2.4.18,13.17,13.17,0,0,0-3.49-6,14.73,14.73,0,0,0-19.68,0,14.41,14.41,0,0,0-4.09,10.63,22.56,22.56,0,0,0,4,12.66,13.57,13.57,0,0,0,7.67,5.75,2.55,2.55,0,0,0-.3,1.2v1.75a.82.82,0,0,0,.82.82h.88a5.07,5.07,0,0,1-.34,1.22,7.25,7.25,0,0,0,0,5.23,5.62,5.62,0,0,1,0,4.09,6.52,6.52,0,0,0-.49,2.62.82.82,0,1,0,1.64,0,4.92,4.92,0,0,1,.38-2,7.25,7.25,0,0,0,0-5.24,5.61,5.61,0,0,1,0-4.08,6.46,6.46,0,0,0,.45-1.8h1a.82.82,0,0,0,.82-.82v-1.75a2.55,2.55,0,0,0-.3-1.2,10.19,10.19,0,0,0,1.23-.38c2.15,5.29,5.88,9,10,10a2.55,2.55,0,0,0-.3,1.21V199a.82.82,0,0,0,.82.82h.88a5.07,5.07,0,0,1-.34,1.22,6.51,6.51,0,0,0-.49,2.62.82.82,0,1,0,1.64,0,4.92,4.92,0,0,1,.38-2,6.46,6.46,0,0,0,.45-1.8h1a.82.82,0,0,0,.82-.82v-1.75a2.55,2.55,0,0,0-.3-1.2,13.57,13.57,0,0,0,7.67-5.75,22.56,22.56,0,0,0,4-12.66,14.41,14.41,0,0,0-4.09-10.63Zm-34.16,12.75a20.88,20.88,0,0,1-3.69-11.72,12.82,12.82,0,0,1,3.59-9.46,13.1,13.1,0,0,1,17.39,0,12.82,12.82,0,0,1,3.59,9.46,20.88,20.88,0,0,1-3.69,11.72c-2.41,3.44-5.46,5.33-8.6,5.33S1040.88,183.15,1038.47,179.72Zm9.52,7.9v.93h-1.86v-.93a.93.93,0,1,1,1.86,0Zm15.73,9.61v.93h-1.86v-.93a.93.93,0,1,1,1.86,0Zm7.67-7.9c-2.41,3.44-5.46,5.33-8.6,5.33a9.49,9.49,0,0,1-6.39-2.78,18.32,18.32,0,0,1-4.36-6.54,12.69,12.69,0,0,0,1.56-1,15.15,15.15,0,0,0,5.22,7.18.82.82,0,1,0,.92-1.35,14,14,0,0,1-4.82-7,18,18,0,0,0,2.07-2.47,22.56,22.56,0,0,0,4-12.66,18.27,18.27,0,0,0-.24-3,14.55,14.55,0,0,1,2-.14,12.32,12.32,0,0,1,8.7,3.3,12.82,12.82,0,0,1,3.59,9.46,20.88,20.88,0,0,1-3.69,11.72Z"/><path class="cls-5" d="M1071.14,170.52a.82.82,0,1,0-1.31,1,10,10,0,0,1,1.75,6.1,16.91,16.91,0,0,1-.42,3.71.82.82,0,0,0,.62,1l.18,0a.82.82,0,0,0,.8-.64,18.55,18.55,0,0,0,.46-4.07,11.55,11.55,0,0,0-2.07-7.08Z"/><path class="cls-5" d="M1068.44,168.13a10.1,10.1,0,0,0-1.9-.85.82.82,0,1,0-.51,1.56,8.46,8.46,0,0,1,1.59.71.82.82,0,0,0,.82-1.42Z"/><path class="cls-5" d="M520.24,133.56a.74.74,0,0,0,.81.07l2.13-1.15,1.73,1.68a.74.74,0,0,0,1.26-.51l.07-2.41,2.32-.66a.74.74,0,0,0,.19-1.35L526.7,128l.59-2.34a.74.74,0,0,0-1.08-.84l-2.13,1.15-1.73-1.68a.74.74,0,0,0-1.26.51l-.07,2.41-2.32.66a.74.74,0,0,0-.19,1.35l2.05,1.27L520,132.8A.74.74,0,0,0,520.24,133.56Zm1.59-2,.31-1.23a.74.74,0,0,0-.33-.82l-1.08-.67,1.22-.35a.75.75,0,0,0,.54-.69l0-1.27.91.88a.74.74,0,0,0,.87.12l1.12-.6-.31,1.23a.74.74,0,0,0,.33.82l1.08.67-1.22.35a.74.74,0,0,0-.54.69l0,1.27-.91-.88a.74.74,0,0,0-.87-.12Z"/><path class="cls-5" d="M526.54,123.09a.74.74,0,0,0,1-.33l3.48-6.88a.74.74,0,1,0-1.33-.67l-3.48,6.88A.74.74,0,0,0,526.54,123.09Z"/><path class="cls-5" d="M520.05,122.89a.74.74,0,0,0,.31-1l-4.64-8.68a.74.74,0,1,0-1.31.7l4.64,8.68A.74.74,0,0,0,520.05,122.89Z"/><path class="cls-5" d="M505.39,127.43l10.25,1.42a.74.74,0,0,0,.2-1.48L505.6,126a.74.74,0,1,0-.2,1.48Z"/><path class="cls-5" d="M510.69,121.66l7.37,4.81a.75.75,0,0,0,.93-.09l.1-.13a.74.74,0,0,0-.22-1l-7.37-4.81a.74.74,0,1,0-.81,1.25Z"/><path class="cls-5" d="M523.32,122.67a.74.74,0,0,0,.71-.78l-.27-5.66a.74.74,0,1,0-1.49.07l.27,5.66A.74.74,0,0,0,523.32,122.67Z"/><path class="cls-5" d="M529.89,125l3.31-2.76,0,0a.74.74,0,0,0-1-1.1l-3.31,2.76a.74.74,0,0,0,1,1.14Z"/><path class="cls-5" d="M512.42,111.52a2.32,2.32,0,0,0,1.73-.45l.23-.2a2.34,2.34,0,1,0-2,.65Zm-.35-1.8a.85.85,0,1,1,.56.33A.84.84,0,0,1,512.07,109.72Z"/><path class="cls-5" d="M532.25,113.47A2.32,2.32,0,0,0,534,113l.23-.2a2.34,2.34,0,1,0-2,.65Zm-.35-1.8a.85.85,0,0,1,.08-1.12l.08-.07a.85.85,0,1,1-.16,1.19Z"/><path class="cls-5" d="M500.44,128.35a2.34,2.34,0,1,0-2-2.64A2.33,2.33,0,0,0,500.44,128.35Zm-.52-2.43a.84.84,0,0,1,.25-.49l.08-.07a.85.85,0,1,1-.33.56Z"/><path class="cls-5" d="M526.52,144.92a.74.74,0,0,0,.59-.87l-1.47-7.57a.74.74,0,0,0-1.46.28l1.47,7.57A.74.74,0,0,0,526.52,144.92Z"/><path class="cls-5" d="M510.6,142.48a.74.74,0,0,0,1,0l0,0,6.83-7.09a.74.74,0,0,0-1.07-1l-6.83,7.09A.74.74,0,0,0,510.6,142.48Z"/><path class="cls-5" d="M509.57,134.37l8.4-2.62a.74.74,0,1,0-.44-1.42l-8.4,2.62a.74.74,0,0,0,.44,1.42Z"/><path class="cls-5" d="M519.28,142.2a.74.74,0,0,0,.94-.47l1.8-5.38a.74.74,0,0,0-1.41-.47l-1.8,5.38A.75.75,0,0,0,519.28,142.2Z"/><path class="cls-5" d="M530.73,139.59l.1-.08a.75.75,0,0,0,.09-1L528.5,135a.74.74,0,1,0-1.23.84l2.43,3.55A.74.74,0,0,0,530.73,139.59Z"/><path class="cls-5" d="M507.39,147.8a2.32,2.32,0,0,0,1.73-.45l.23-.2a2.34,2.34,0,1,0-2,.65Zm-.52-2.43a.84.84,0,0,1,.25-.49l.08-.07a.85.85,0,1,1-.33.56Z"/><path class="cls-5" d="M527,151.33a2.32,2.32,0,0,0,1.73-.45l.23-.2a2.34,2.34,0,1,0-2,.65Zm-.52-2.43a.85.85,0,1,1,.72,1A.84.84,0,0,1,526.47,148.89Z"/><path class="cls-5" d="M531.77,130.3c.13,0,12.85.41,22.95,5.05a.74.74,0,0,0,.62-1.35c-10.38-4.77-23-5.17-23.53-5.19a.74.74,0,0,0,0,1.49Z"/><path class="cls-8" d="M1035.68,232.65c-3.9-2.34-5-3.43-5.65-5.53a1.08,1.08,0,0,0-2-.08c-2.8,7-.76,11,1.44,13.1a8.93,8.93,0,0,0,7.16,2.5,10.43,10.43,0,0,0,3.53-1,1.08,1.08,0,0,0,.58-1A10.16,10.16,0,0,0,1035.68,232.65Zm-4.76,5.92c-2.06-2-2.64-4.76-1.73-8.31,1.09,1.49,2.75,2.66,5.38,4.24a8.11,8.11,0,0,1,3.9,5.53A7.23,7.23,0,0,1,1030.92,238.57Z"/><path class="cls-8" d="M1056,254h0a1.08,1.08,0,0,0,.06,2.15h0a1.08,1.08,0,0,0,0-2.15Z"/><path class="cls-8" d="M1075.53,234.78a1.08,1.08,0,0,0-1.06-.35l-5.54,1.29a16.16,16.16,0,0,1-2.68.39,24.61,24.61,0,0,1,7.42-4.67l4.13-1.66a1.08,1.08,0,0,0-.27-2.07,45.72,45.72,0,0,0-6.62-.31l5-2.5a1.08,1.08,0,0,0-.49-2h-.66a47.34,47.34,0,0,0-16.71,3.07l2.12-3.1a1.08,1.08,0,0,0-1-1.68,15,15,0,0,0-9,4.56,15,15,0,0,0-3.4-9.53,1.08,1.08,0,0,0-1.9.51l-.6,3.71a47.35,47.35,0,0,0-10-13.74l-.48-.45a1.08,1.08,0,0,0-1.76,1.14l1.88,5.24a45.72,45.72,0,0,0-5-4.34,1.08,1.08,0,0,0-1.62,1.31l1.85,4.05a24.62,24.62,0,0,1,2.15,8.5,16.2,16.2,0,0,1-1.68-2.13l-3.13-4.76a1.08,1.08,0,0,0-1.9.19l-3.69,9.24a17.55,17.55,0,0,0,9.77,22.78l.14.06a19.35,19.35,0,0,0,10.21,1.15,19.35,19.35,0,0,0,8.19,6.2l.14.06a17.69,17.69,0,0,0,2.63.82,1.08,1.08,0,1,0,.48-2.1,15.57,15.57,0,0,1-2.31-.72l-.14-.06a17.2,17.2,0,0,1-7.64-6,1.09,1.09,0,0,0-1.08-.43,17.2,17.2,0,0,1-9.67-.92l-.14-.06a15.39,15.39,0,0,1-8.57-20l2.92-7.32,2,3a18.46,18.46,0,0,0,3.87,4.25l.12.1a18.35,18.35,0,0,0,2.5,1.66l1.81,1a16.28,16.28,0,0,1,8,10.44v0a1.08,1.08,0,0,0,1.63.63,16.28,16.28,0,0,1,13-2.08l2,.52a18.34,18.34,0,0,0,3,.52h.16a18.45,18.45,0,0,0,5.73-.41l3.53-.82-2.92,7.32a15.44,15.44,0,0,1-10.44,9.18,1.08,1.08,0,1,0,.54,2.09,17.69,17.69,0,0,0,6.78-3.45l-7.18,18a1.08,1.08,0,0,0,2,.8l14-35a1.08,1.08,0,0,0-.18-1.1Zm-38.47-8.5-1.81-1a16.12,16.12,0,0,1-1.84-1.19,26.8,26.8,0,0,0-2.3-11.13,43.64,43.64,0,0,1,3.52,3.66l.19.23a1.37,1.37,0,0,0,2.34-1.36l-1.49-4.15a45.23,45.23,0,0,1,7.52,12.12,1.43,1.43,0,0,0,2.72-.33l.55-3.38a12.9,12.9,0,0,1,.54,10.75l-1.88,4.71A18.44,18.44,0,0,0,1037.06,226.28Zm24.06,9.34-2-.52a18.44,18.44,0,0,0-12,.92l1.88-4.71a12.9,12.9,0,0,1,7.8-7.41l-1.94,2.83a1.43,1.43,0,0,0,1.75,2.11,45.23,45.23,0,0,1,13.81-3.6l-3.94,2a1.37,1.37,0,0,0,.76,2.6l.3,0a43.64,43.64,0,0,1,5.07-.23,26.79,26.79,0,0,0-9.33,6.48A16.14,16.14,0,0,1,1061.11,235.62Z"/><path class="cls-8" d="M1065.17,241.88a1.08,1.08,0,0,0-1.53-1.34c-1.92,1.08-3.47,1.1-7.91.11a10.16,10.16,0,0,0-9.19,2.36,1.08,1.08,0,0,0-.25,1.11,10.42,10.42,0,0,0,1.9,3.13,8.93,8.93,0,0,0,6.91,3.12C1058.14,250.38,1062.37,248.9,1065.17,241.88Zm-10.08,6.35a7.18,7.18,0,0,1-6.48-4.14,8.11,8.11,0,0,1,6.64-1.32c3,.67,5,1,6.82.64C1060.28,246.6,1057.94,248.22,1055.09,248.23Z"/><path class="cls-5" d="M510.51,219.83a1,1,0,1,0,1.37.32A1,1,0,0,0,510.51,219.83Z"/><path class="cls-5" d="M532.14,254.56a1,1,0,1,0,1.37.32A1,1,0,0,0,532.14,254.56Z"/><path class="cls-5" d="M511.93,248.42a1,1,0,1,0,1.37.32A1,1,0,0,0,511.93,248.42Z"/><path class="cls-5" d="M515.08,253.48a1,1,0,1,0,1.37.32A1,1,0,0,0,515.08,253.48Z"/><path class="cls-5" d="M518.23,258.54a1,1,0,1,0,1.37.32A1,1,0,0,0,518.23,258.54Z"/><path class="cls-5" d="M486.9,234.52a1,1,0,1,0,1.37.32A1,1,0,0,0,486.9,234.52Z"/><path class="cls-5" d="M508.53,269.26a1,1,0,1,0,1.37.32A1,1,0,0,0,508.53,269.26Z"/><path class="cls-5" d="M510.1,215.4l-27,16.8a3,3,0,0,0-1,4.1l23.73,38.11a3,3,0,0,0,4.1,1l27-16.8a3,3,0,0,0,1-4.1L514.2,216.36A3,3,0,0,0,510.1,215.4Zm26.15,40.11a1,1,0,0,1-.32,1.37l-27,16.8a1,1,0,0,1-1.37-.32l-23.73-38.11a1,1,0,0,1,.32-1.37l27-16.8a1,1,0,0,1,1.37.32Z"/><path class="cls-5" d="M509.55,225.8l-16.86,10.5a3,3,0,0,0-1,4.1l5.25,8.43a3,3,0,0,0,4.1,1L518,239.29a3,3,0,0,0,1-4.1h0l-5.25-8.43A3,3,0,0,0,509.55,225.8ZM500,248.11a1,1,0,0,1-1.37-.32l-.83-1.34,1.59-6.84L509.81,242Zm16.86-10.5-4.71,2.93-2.74-.64L510.6,235l6.75,1.57A1,1,0,0,1,516.9,237.61Zm-.95-3.4-5.87-1.37a1,1,0,0,0-1.19.74l-1.37,5.87-8.61-2a1,1,0,0,0-1.19.74l-1.37,5.87-2.93-4.71a1,1,0,0,1,.32-1.37l16.86-10.5a1,1,0,0,1,1.37.32Z"/><path class="cls-5" d="M508.56,250.52l-6.75,4.2a1,1,0,0,0,1,1.69l6.75-4.2a1,1,0,0,0-1-1.69Z"/><path class="cls-5" d="M511.71,255.58l-6.75,4.2a1,1,0,0,0,1,1.69l6.75-4.2a1,1,0,0,0-1-1.69Z"/><path class="cls-5" d="M514.86,260.64l-6.75,4.2a1,1,0,0,0,1,1.69l6.75-4.2a1,1,0,1,0-1-1.69Z"/><path class="cls-5" d="M522.05,242.12l-6.75,4.2a1,1,0,1,0,1,1.69l6.75-4.2a1,1,0,0,0-1-1.69Z"/><path class="cls-5" d="M525.2,247.18l-6.75,4.2a1,1,0,1,0,1,1.69l6.75-4.2a1,1,0,0,0-1-1.69Z"/><path class="cls-5" d="M528.35,252.24l-6.75,4.2a1,1,0,0,0,1,1.69l6.75-4.2a1,1,0,1,0-1-1.69Z"/><path class="cls-5" d="M828,122.8a1.12,1.12,0,0,1-1.13-1.11,1.11,1.11,0,0,1,1.13-1.11h3.42a1.11,1.11,0,1,1,0,2.23Z"/><path class="cls-5" d="M831.47,120.89a.79.79,0,1,1,0,1.59H828a.79.79,0,1,1,0-1.59h3.42m0-.64H828a1.42,1.42,0,0,0-1.44,1.43,1.44,1.44,0,0,0,1.44,1.43h3.42a1.44,1.44,0,0,0,1.44-1.43,1.42,1.42,0,0,0-1.44-1.43Z"/><path class="cls-5" d="M825.56,116.79a1,1,0,0,1-.81-.34,1,1,0,0,1-.32-.71,1.15,1.15,0,0,1,.34-.84l2.43-2.42a1.13,1.13,0,0,1,.81-.34,1.06,1.06,0,0,1,.76.31,1.11,1.11,0,0,1,0,1.6l-2.41,2.43A1,1,0,0,1,825.56,116.79Z"/><path class="cls-5" d="M828,112.44a.75.75,0,0,1,.53.22.79.79,0,0,1,0,1.16l-2.41,2.43a.81.81,0,0,1-1.13,0,.76.76,0,0,1,0-1.13l2.43-2.42a.82.82,0,0,1,.58-.25m0-.64a1.45,1.45,0,0,0-1,.44l-2.43,2.42a1.46,1.46,0,0,0-.43,1.08,1.45,1.45,0,0,0,2.48.93l2.39-2.41a1.42,1.42,0,0,0,0-2.05,1.37,1.37,0,0,0-1-.4Z"/><path class="cls-5" d="M828,131.23a1.11,1.11,0,0,1-.78-.34l-2.42-2.42a1.11,1.11,0,0,1,.79-1.91,1.09,1.09,0,0,1,.78.32l2.41,2.45a.94.94,0,0,1,.27,1.08,1.14,1.14,0,0,1-1,.82Z"/><path class="cls-5" d="M825.57,126.87a.78.78,0,0,1,.56.23l2.41,2.45c.54.4.1,1.36-.53,1.36h0a.8.8,0,0,1-.56-.25L825,128.24a.78.78,0,0,1,0-1.14.81.81,0,0,1,.57-.23m0-.64a1.43,1.43,0,0,0-1,2.45l2.43,2.42a1.43,1.43,0,0,0,1,.43h0a1.47,1.47,0,0,0,1.37-1,1.29,1.29,0,0,0-.38-1.43l-2.38-2.42a1.4,1.4,0,0,0-1-.42Z"/><path class="cls-5" d="M819.56,114.31a1.1,1.1,0,0,1-1.11-1.11v-3.44a1.11,1.11,0,1,1,2.22,0v3.44A1.1,1.1,0,0,1,819.56,114.31Z"/><path class="cls-5" d="M819.56,109a.78.78,0,0,1,.79.79v3.44a.79.79,0,0,1-1.59,0v-3.44a.78.78,0,0,1,.79-.79m0-.64a1.41,1.41,0,0,0-1.43,1.43v3.44a1.43,1.43,0,0,0,2.86,0v-3.44a1.41,1.41,0,0,0-1.43-1.43Z"/><path class="cls-5" d="M819.56,134.71a1.1,1.1,0,0,1-1.11-1.11v-3.45a1.11,1.11,0,1,1,2.22,0v3.45A1.1,1.1,0,0,1,819.56,134.71Z"/><path class="cls-5" d="M819.56,129.34a.8.8,0,0,1,.79.81v3.45a.79.79,0,1,1-1.59,0v-3.45a.8.8,0,0,1,.79-.81m0-.64a1.42,1.42,0,0,0-1.43,1.45v3.45a1.43,1.43,0,1,0,2.86,0v-3.45a1.42,1.42,0,0,0-1.43-1.45Z"/><path class="cls-5" d="M813.58,116.79a1.09,1.09,0,0,1-.79-.32L810.34,114a1.13,1.13,0,0,1-.34-.84,1,1,0,0,1,.36-.75,1,1,0,0,1,.75-.32,1.15,1.15,0,0,1,.81.33l2.45,2.42a1.11,1.11,0,0,1,.32.81,1.09,1.09,0,0,1-.33.78A1.13,1.13,0,0,1,813.58,116.79Z"/><path class="cls-5" d="M811.11,112.45a.83.83,0,0,1,.58.24l2.45,2.42a.79.79,0,0,1-.56,1.36.77.77,0,0,1-.56-.23l-2.45-2.43a.76.76,0,0,1,0-1.12.71.71,0,0,1,.54-.24m0-.64a1.48,1.48,0,0,0-1.43,1.38,1.45,1.45,0,0,0,.44,1.08l2.45,2.43a1.41,1.41,0,0,0,1,.41,1.44,1.44,0,0,0,1-.4,1.41,1.41,0,0,0,.43-1,1.43,1.43,0,0,0-.42-1l-2.45-2.42a1.47,1.47,0,0,0-1-.42Z"/><path class="cls-5" d="M811.14,131.23a1.17,1.17,0,0,1-.79-.33,1.05,1.05,0,0,1-.34-.75,1.14,1.14,0,0,1,.33-.81l2.43-2.45a1.09,1.09,0,0,1,.78-.32,1.23,1.23,0,0,1,.81.3,1.14,1.14,0,0,1,0,1.58l-2.45,2.45a1.1,1.1,0,0,1-.78.34Z"/><path class="cls-5" d="M813.54,126.87a.92.92,0,0,1,.6.23.82.82,0,0,1,0,1.11l-2.45,2.45a.78.78,0,0,1-.55.24.84.84,0,0,1-.57-.24.77.77,0,0,1,0-1.11L813,127.1a.77.77,0,0,1,.56-.23m0-.64a1.4,1.4,0,0,0-1,.42l-2.42,2.45a1.45,1.45,0,0,0-.42,1,1.37,1.37,0,0,0,.44,1,1.48,1.48,0,0,0,1,.42,1.42,1.42,0,0,0,1-.43l2.45-2.45a1.45,1.45,0,0,0,0-2l0,0,0,0a1.55,1.55,0,0,0-1-.38Z"/><path class="cls-5" d="M807.65,122.8a1.12,1.12,0,0,1-1.13-1.11,1.11,1.11,0,0,1,1.13-1.11h3.45a1.11,1.11,0,0,1,0,2.23Z"/><path class="cls-5" d="M811.1,120.89a.79.79,0,0,1,0,1.59h-3.45a.79.79,0,1,1,0-1.59h3.45m0-.64h-3.45a1.42,1.42,0,0,0-1.44,1.43,1.44,1.44,0,0,0,1.44,1.43h3.45a1.43,1.43,0,0,0,0-2.86Z"/><path class="cls-5" d="M247.89,263.57a1.11,1.11,0,1,1,0-2.23h3.42a1.11,1.11,0,1,1,0,2.23Z"/><path class="cls-5" d="M251.31,261.67a.79.79,0,1,1,0,1.59h-3.42a.79.79,0,1,1,0-1.59h3.42m0-.64h-3.42a1.42,1.42,0,0,0-1.44,1.43,1.44,1.44,0,0,0,1.44,1.43h3.42a1.44,1.44,0,0,0,1.44-1.43,1.42,1.42,0,0,0-1.44-1.43Z"/><path class="cls-5" d="M245.41,257.56a1,1,0,0,1-.81-.34,1,1,0,0,1-.32-.71,1.15,1.15,0,0,1,.34-.84l2.43-2.42a1.13,1.13,0,0,1,.81-.34,1.06,1.06,0,0,1,.76.31,1.11,1.11,0,0,1,0,1.6l-2.41,2.43A1,1,0,0,1,245.41,257.56Z"/><path class="cls-5" d="M247.85,253.22a.75.75,0,0,1,.53.22.79.79,0,0,1,0,1.16L246,257a.81.81,0,0,1-1.13,0,.76.76,0,0,1,0-1.13l2.43-2.42a.82.82,0,0,1,.58-.25m0-.64a1.45,1.45,0,0,0-1,.44l-2.43,2.42a1.46,1.46,0,0,0-.43,1.08,1.45,1.45,0,0,0,2.48.93l2.39-2.41a1.42,1.42,0,0,0,0-2.05,1.37,1.37,0,0,0-1-.4Z"/><path class="cls-5" d="M247.82,272a1.11,1.11,0,0,1-.78-.34l-2.42-2.42a1.11,1.11,0,0,1,.79-1.91,1.09,1.09,0,0,1,.78.32l2.41,2.45a.94.94,0,0,1,.28,1.08,1.14,1.14,0,0,1-1,.82Z"/><path class="cls-5" d="M245.41,267.65a.78.78,0,0,1,.56.23l2.41,2.45c.54.4.1,1.36-.53,1.36h0a.8.8,0,0,1-.56-.25L244.85,269a.78.78,0,0,1,0-1.14.81.81,0,0,1,.57-.23m0-.64a1.43,1.43,0,0,0-1,2.45l2.43,2.42a1.43,1.43,0,0,0,1,.43h0a1.47,1.47,0,0,0,1.37-1,1.29,1.29,0,0,0-.38-1.43l-2.38-2.42a1.4,1.4,0,0,0-1-.42Z"/><path class="cls-5" d="M239.4,255.08a1.1,1.1,0,0,1-1.11-1.11v-3.44a1.11,1.11,0,1,1,2.22,0V254A1.1,1.1,0,0,1,239.4,255.08Z"/><path class="cls-5" d="M239.4,249.74a.78.78,0,0,1,.79.79V254a.79.79,0,0,1-1.59,0v-3.44a.78.78,0,0,1,.79-.79m0-.64a1.41,1.41,0,0,0-1.43,1.43V254a1.43,1.43,0,0,0,2.86,0v-3.44a1.41,1.41,0,0,0-1.43-1.43Z"/><path class="cls-5" d="M239.4,275.48a1.1,1.1,0,0,1-1.11-1.11v-3.45a1.11,1.11,0,1,1,2.22,0v3.45A1.1,1.1,0,0,1,239.4,275.48Z"/><path class="cls-5" d="M239.4,270.11a.8.8,0,0,1,.79.81v3.45a.79.79,0,1,1-1.59,0v-3.45a.8.8,0,0,1,.79-.81m0-.64a1.42,1.42,0,0,0-1.43,1.45v3.45a1.43,1.43,0,1,0,2.86,0v-3.45a1.42,1.42,0,0,0-1.43-1.45Z"/><path class="cls-5" d="M233.42,257.57a1.09,1.09,0,0,1-.79-.32l-2.46-2.43a1.13,1.13,0,0,1-.34-.84,1,1,0,0,1,.36-.75,1,1,0,0,1,.75-.32,1.15,1.15,0,0,1,.81.33l2.45,2.42a1.11,1.11,0,0,1,.32.81,1.08,1.08,0,0,1-.33.78A1.13,1.13,0,0,1,233.42,257.57Z"/><path class="cls-5" d="M231,253.22a.83.83,0,0,1,.58.24l2.45,2.42a.79.79,0,0,1-.56,1.36.77.77,0,0,1-.56-.23l-2.45-2.43a.76.76,0,0,1,0-1.12.71.71,0,0,1,.54-.24m0-.64a1.48,1.48,0,0,0-1.43,1.38A1.45,1.45,0,0,0,230,255l2.45,2.43a1.41,1.41,0,0,0,1,.41,1.44,1.44,0,0,0,1-.4,1.41,1.41,0,0,0,.43-1,1.43,1.43,0,0,0-.42-1L232,253a1.47,1.47,0,0,0-1-.42Z"/><path class="cls-5" d="M231,272a1.17,1.17,0,0,1-.79-.33,1.05,1.05,0,0,1-.34-.75,1.14,1.14,0,0,1,.33-.81l2.43-2.45a1.09,1.09,0,0,1,.78-.32,1.23,1.23,0,0,1,.81.3,1.14,1.14,0,0,1,0,1.58l-2.45,2.45a1.1,1.1,0,0,1-.78.34Z"/><path class="cls-5" d="M233.39,267.65a.92.92,0,0,1,.6.23.82.82,0,0,1,0,1.11l-2.45,2.45a.78.78,0,0,1-.55.24.84.84,0,0,1-.57-.24.77.77,0,0,1,0-1.11l2.43-2.45a.77.77,0,0,1,.56-.23m0-.64a1.4,1.4,0,0,0-1,.42L230,269.88a1.45,1.45,0,0,0-.42,1,1.37,1.37,0,0,0,.44,1,1.48,1.48,0,0,0,1,.42,1.42,1.42,0,0,0,1-.43l2.45-2.45a1.45,1.45,0,0,0,0-2l0,0,0,0a1.55,1.55,0,0,0-1-.38Z"/><path class="cls-5" d="M227.49,263.57a1.11,1.11,0,1,1,0-2.23h3.45a1.11,1.11,0,0,1,0,2.23Z"/><path class="cls-5" d="M230.94,261.67a.79.79,0,0,1,0,1.59h-3.45a.79.79,0,1,1,0-1.59h3.45m0-.64h-3.45a1.42,1.42,0,0,0-1.44,1.43,1.44,1.44,0,0,0,1.44,1.43h3.45a1.43,1.43,0,0,0,0-2.86Z"/><path class="cls-5" d="M584.52,87.05a1.11,1.11,0,1,1,0-2.23h3.42a1.11,1.11,0,1,1,0,2.23Z"/><path class="cls-5" d="M587.94,85.14a.79.79,0,1,1,0,1.59h-3.42a.79.79,0,1,1,0-1.59h3.42m0-.64h-3.42a1.42,1.42,0,0,0-1.44,1.43,1.44,1.44,0,0,0,1.44,1.43h3.42a1.44,1.44,0,0,0,1.44-1.43,1.42,1.42,0,0,0-1.44-1.43Z"/><path class="cls-5" d="M582,81a1,1,0,0,1-.81-.34,1,1,0,0,1-.32-.71,1.15,1.15,0,0,1,.34-.84l2.43-2.42a1.13,1.13,0,0,1,.81-.34,1.06,1.06,0,0,1,.76.31,1.11,1.11,0,0,1,0,1.6l-2.41,2.43A1,1,0,0,1,582,81Z"/><path class="cls-5" d="M584.48,76.7a.75.75,0,0,1,.53.22.79.79,0,0,1,0,1.16L582.6,80.5a.81.81,0,0,1-1.13,0,.76.76,0,0,1,0-1.13l2.43-2.42a.82.82,0,0,1,.58-.25m0-.64a1.45,1.45,0,0,0-1,.44L581,78.92a1.46,1.46,0,0,0-.43,1.08,1.45,1.45,0,0,0,2.48.93l2.39-2.41a1.42,1.42,0,0,0,0-2.05,1.37,1.37,0,0,0-1-.4Z"/><path class="cls-5" d="M584.45,95.48a1.11,1.11,0,0,1-.78-.34l-2.42-2.42a1.11,1.11,0,0,1,.79-1.91,1.09,1.09,0,0,1,.78.32l2.41,2.45a.94.94,0,0,1,.28,1.08,1.14,1.14,0,0,1-1,.82Z"/><path class="cls-5" d="M582,91.13a.78.78,0,0,1,.56.23L585,93.8c.54.4.1,1.36-.53,1.36h0a.8.8,0,0,1-.56-.25l-2.43-2.42a.78.78,0,0,1,0-1.14.81.81,0,0,1,.57-.23m0-.64a1.43,1.43,0,0,0-1,2.45l2.43,2.42a1.44,1.44,0,0,0,1,.43h0a1.47,1.47,0,0,0,1.37-1,1.29,1.29,0,0,0-.38-1.43L583,90.91a1.4,1.4,0,0,0-1-.42Z"/><path class="cls-5" d="M576,78.56a1.1,1.1,0,0,1-1.11-1.11V74a1.11,1.11,0,1,1,2.22,0v3.44A1.1,1.1,0,0,1,576,78.56Z"/><path class="cls-5" d="M576,73.22a.78.78,0,0,1,.79.79v3.44a.79.79,0,0,1-1.59,0V74a.78.78,0,0,1,.79-.79m0-.64A1.41,1.41,0,0,0,574.6,74v3.44a1.43,1.43,0,0,0,2.86,0V74A1.41,1.41,0,0,0,576,72.58Z"/><path class="cls-5" d="M576,99a1.1,1.1,0,0,1-1.11-1.11V94.4a1.11,1.11,0,1,1,2.22,0v3.45A1.1,1.1,0,0,1,576,99Z"/><path class="cls-5" d="M576,93.59a.8.8,0,0,1,.79.81v3.45a.79.79,0,1,1-1.59,0V94.4a.8.8,0,0,1,.79-.81m0-.64a1.42,1.42,0,0,0-1.43,1.45v3.45a1.43,1.43,0,1,0,2.86,0V94.4A1.42,1.42,0,0,0,576,93Z"/><path class="cls-5" d="M570,81a1.09,1.09,0,0,1-.79-.32l-2.46-2.43a1.14,1.14,0,0,1-.34-.84,1,1,0,0,1,.36-.75,1,1,0,0,1,.75-.32,1.15,1.15,0,0,1,.81.33l2.45,2.42a1.11,1.11,0,0,1,.32.8,1.09,1.09,0,0,1-.33.78A1.13,1.13,0,0,1,570,81Z"/><path class="cls-5" d="M567.58,76.7a.83.83,0,0,1,.58.24l2.45,2.42a.79.79,0,0,1-.56,1.36.77.77,0,0,1-.56-.23L567,78.07a.76.76,0,0,1,0-1.12.71.71,0,0,1,.54-.24m0-.64a1.48,1.48,0,0,0-1.43,1.38,1.45,1.45,0,0,0,.44,1.08L569,80.95a1.41,1.41,0,0,0,1,.41,1.44,1.44,0,0,0,1-.4,1.41,1.41,0,0,0,.43-1,1.43,1.43,0,0,0-.42-1l-2.45-2.42a1.47,1.47,0,0,0-1-.42Z"/><path class="cls-5" d="M567.61,95.48a1.17,1.17,0,0,1-.79-.33,1.05,1.05,0,0,1-.34-.75,1.13,1.13,0,0,1,.33-.82l2.43-2.45a1.09,1.09,0,0,1,.78-.32,1.23,1.23,0,0,1,.81.3,1.14,1.14,0,0,1,0,1.58l-2.45,2.45a1.08,1.08,0,0,1-.78.34Z"/><path class="cls-5" d="M570,91.13a.92.92,0,0,1,.6.23.82.82,0,0,1,0,1.11l-2.45,2.45a.78.78,0,0,1-.55.24.84.84,0,0,1-.57-.24.77.77,0,0,1,0-1.11l2.43-2.45a.77.77,0,0,1,.56-.23m0-.64a1.4,1.4,0,0,0-1,.42l-2.42,2.45a1.45,1.45,0,0,0-.42,1,1.37,1.37,0,0,0,.44,1,1.48,1.48,0,0,0,1,.42,1.42,1.42,0,0,0,1-.43l2.45-2.45a1.45,1.45,0,0,0,0-2l0,0,0,0a1.55,1.55,0,0,0-1-.38Z"/><path class="cls-5" d="M564.12,87.05a1.11,1.11,0,1,1,0-2.23h3.45a1.11,1.11,0,0,1,0,2.23Z"/><path class="cls-5" d="M567.57,85.14a.79.79,0,0,1,0,1.59h-3.45a.79.79,0,1,1,0-1.59h3.45m0-.64h-3.45a1.42,1.42,0,0,0-1.44,1.43,1.44,1.44,0,0,0,1.44,1.43h3.45a1.43,1.43,0,0,0,0-2.86Z"/><path class="cls-5" d="M1042.16,123.6a1.11,1.11,0,1,1,0-2.23h3.42a1.11,1.11,0,1,1,0,2.23Z"/><path class="cls-5" d="M1045.58,121.69a.79.79,0,1,1,0,1.59h-3.42a.79.79,0,1,1,0-1.59h3.42m0-.64h-3.42a1.42,1.42,0,0,0-1.44,1.43,1.44,1.44,0,0,0,1.44,1.43h3.42a1.44,1.44,0,0,0,1.44-1.43,1.42,1.42,0,0,0-1.44-1.43Z"/><path class="cls-5" d="M1039.68,117.59a1,1,0,0,1-.81-.34,1,1,0,0,1-.32-.71,1.15,1.15,0,0,1,.34-.84l2.43-2.42a1.13,1.13,0,0,1,.81-.34,1.06,1.06,0,0,1,.75.31,1.11,1.11,0,0,1,0,1.6l-2.41,2.43A1,1,0,0,1,1039.68,117.59Z"/><path class="cls-5" d="M1042.12,113.25a.75.75,0,0,1,.53.22.79.79,0,0,1,0,1.16l-2.41,2.43a.81.81,0,0,1-1.13,0,.76.76,0,0,1,0-1.13l2.43-2.42a.82.82,0,0,1,.58-.25m0-.64a1.45,1.45,0,0,0-1,.44l-2.42,2.42a1.46,1.46,0,0,0-.43,1.08,1.45,1.45,0,0,0,2.48.93l2.39-2.41a1.42,1.42,0,0,0,0-2.05,1.37,1.37,0,0,0-1-.4Z"/><path class="cls-5" d="M1042.09,132a1.11,1.11,0,0,1-.78-.34l-2.42-2.42a1.11,1.11,0,0,1,.79-1.91,1.09,1.09,0,0,1,.78.32l2.41,2.45a1,1,0,0,1,.28,1.08,1.14,1.14,0,0,1-1,.82Z"/><path class="cls-5" d="M1039.68,127.68a.78.78,0,0,1,.56.23l2.41,2.45c.54.4.1,1.36-.53,1.36h0a.8.8,0,0,1-.56-.25l-2.43-2.42a.78.78,0,0,1,0-1.14.81.81,0,0,1,.57-.23m0-.64a1.43,1.43,0,0,0-1,2.45l2.43,2.42a1.43,1.43,0,0,0,1,.43h0a1.47,1.47,0,0,0,1.37-1,1.29,1.29,0,0,0-.38-1.43l-2.38-2.42a1.4,1.4,0,0,0-1-.42Z"/><path class="cls-5" d="M1033.67,115.11a1.1,1.1,0,0,1-1.11-1.11v-3.44a1.11,1.11,0,1,1,2.22,0V114A1.1,1.1,0,0,1,1033.67,115.11Z"/><path class="cls-5" d="M1033.67,109.77a.78.78,0,0,1,.79.79V114a.79.79,0,0,1-1.59,0v-3.44a.78.78,0,0,1,.79-.79m0-.64a1.41,1.41,0,0,0-1.43,1.43V114a1.43,1.43,0,0,0,2.86,0v-3.44a1.41,1.41,0,0,0-1.43-1.43Z"/><path class="cls-5" d="M1033.67,135.51a1.1,1.1,0,0,1-1.11-1.11v-3.45a1.11,1.11,0,1,1,2.22,0v3.45A1.1,1.1,0,0,1,1033.67,135.51Z"/><path class="cls-5" d="M1033.67,130.14a.8.8,0,0,1,.79.81v3.45a.79.79,0,1,1-1.59,0v-3.45a.8.8,0,0,1,.79-.81m0-.64a1.42,1.42,0,0,0-1.43,1.45v3.45a1.43,1.43,0,1,0,2.86,0v-3.45a1.42,1.42,0,0,0-1.43-1.45Z"/><path class="cls-5" d="M1027.69,117.59a1.09,1.09,0,0,1-.79-.32l-2.46-2.43a1.14,1.14,0,0,1-.34-.84,1,1,0,0,1,.36-.75,1,1,0,0,1,.75-.32,1.16,1.16,0,0,1,.81.33l2.45,2.42a1.11,1.11,0,0,1,.32.81,1.08,1.08,0,0,1-.33.78A1.13,1.13,0,0,1,1027.69,117.59Z"/><path class="cls-5" d="M1025.22,113.25a.83.83,0,0,1,.58.24l2.45,2.42a.79.79,0,0,1-.56,1.36.77.77,0,0,1-.56-.23l-2.45-2.43a.76.76,0,0,1,0-1.12.71.71,0,0,1,.54-.24m0-.64a1.48,1.48,0,0,0-1.43,1.38,1.45,1.45,0,0,0,.44,1.08l2.45,2.43a1.41,1.41,0,0,0,1,.41,1.44,1.44,0,0,0,1-.4,1.41,1.41,0,0,0,.43-1,1.43,1.43,0,0,0-.42-1l-2.45-2.42a1.47,1.47,0,0,0-1-.42Z"/><path class="cls-5" d="M1025.25,132a1.17,1.17,0,0,1-.79-.33,1,1,0,0,1-.34-.75,1.13,1.13,0,0,1,.33-.81l2.43-2.45a1.09,1.09,0,0,1,.78-.32,1.23,1.23,0,0,1,.81.3,1.14,1.14,0,0,1,0,1.58l-2.45,2.45a1.1,1.1,0,0,1-.78.34Z"/><path class="cls-5" d="M1027.66,127.68a.92.92,0,0,1,.6.23.82.82,0,0,1,0,1.11l-2.45,2.45a.78.78,0,0,1-.55.24.84.84,0,0,1-.57-.24.77.77,0,0,1,0-1.11l2.43-2.45a.77.77,0,0,1,.56-.23m0-.64a1.4,1.4,0,0,0-1,.42l-2.42,2.45a1.45,1.45,0,0,0-.42,1,1.37,1.37,0,0,0,.44,1,1.48,1.48,0,0,0,1,.42,1.42,1.42,0,0,0,1-.43l2.45-2.45a1.45,1.45,0,0,0,0-2l0,0,0,0a1.55,1.55,0,0,0-1-.38Z"/><path class="cls-5" d="M1021.76,123.6a1.11,1.11,0,1,1,0-2.23h3.45a1.11,1.11,0,0,1,0,2.23Z"/><path class="cls-5" d="M1025.21,121.69a.79.79,0,0,1,0,1.59h-3.45a.79.79,0,1,1,0-1.59h3.45m0-.64h-3.45a1.42,1.42,0,0,0-1.44,1.43,1.44,1.44,0,0,0,1.44,1.43h3.45a1.43,1.43,0,0,0,0-2.86Z"/><path class="cls-5" d="M1003,200.58a1.12,1.12,0,0,1-1.13-1.11,1.11,1.11,0,0,1,1.13-1.11h3.42a1.11,1.11,0,0,1,1.13,1.11,1.12,1.12,0,0,1-1.13,1.11Z"/><path class="cls-5" d="M1006.42,198.67a.79.79,0,1,1,0,1.59H1003a.79.79,0,1,1,0-1.59h3.42m0-.64H1003a1.42,1.42,0,0,0-1.44,1.43,1.44,1.44,0,0,0,1.44,1.43h3.42a1.44,1.44,0,0,0,1.44-1.43,1.42,1.42,0,0,0-1.44-1.43Z"/><path class="cls-5" d="M1000.51,194.57a1,1,0,0,1-.81-.34,1,1,0,0,1-.32-.71,1.15,1.15,0,0,1,.34-.84l2.42-2.42a1.13,1.13,0,0,1,.81-.34,1.06,1.06,0,0,1,.76.31,1.11,1.11,0,0,1,0,1.6l-2.41,2.43A1,1,0,0,1,1000.51,194.57Z"/><path class="cls-5" d="M1003,190.23a.75.75,0,0,1,.53.22.79.79,0,0,1,0,1.16l-2.41,2.43a.81.81,0,0,1-1.13,0,.76.76,0,0,1,0-1.13l2.43-2.42a.82.82,0,0,1,.58-.25m0-.64a1.45,1.45,0,0,0-1,.44l-2.43,2.42a1.46,1.46,0,0,0-.43,1.08,1.45,1.45,0,0,0,2.48.93l2.39-2.41a1.42,1.42,0,0,0,0-2.05,1.37,1.37,0,0,0-1-.4Z"/><path class="cls-5" d="M1002.93,209a1.11,1.11,0,0,1-.78-.34l-2.42-2.42a1.11,1.11,0,0,1,.79-1.91,1.09,1.09,0,0,1,.79.32l2.41,2.45a.94.94,0,0,1,.27,1.08,1.14,1.14,0,0,1-1,.82Z"/><path class="cls-5" d="M1000.52,204.66a.78.78,0,0,1,.56.23l2.41,2.45c.54.4.1,1.36-.53,1.36h0a.8.8,0,0,1-.56-.25L1000,206a.78.78,0,0,1,0-1.14.81.81,0,0,1,.57-.23m0-.64a1.43,1.43,0,0,0-1,2.45l2.43,2.42a1.43,1.43,0,0,0,1,.43h0a1.47,1.47,0,0,0,1.37-1,1.29,1.29,0,0,0-.38-1.43l-2.38-2.42a1.4,1.4,0,0,0-1-.42Z"/><path class="cls-5" d="M994.51,192.09A1.1,1.1,0,0,1,993.4,191v-3.44a1.11,1.11,0,1,1,2.22,0V191A1.1,1.1,0,0,1,994.51,192.09Z"/><path class="cls-5" d="M994.51,186.75a.78.78,0,0,1,.79.79V191a.79.79,0,0,1-1.59,0v-3.44a.78.78,0,0,1,.79-.79m0-.64a1.41,1.41,0,0,0-1.43,1.43V191a1.43,1.43,0,0,0,2.86,0v-3.44a1.41,1.41,0,0,0-1.43-1.43Z"/><path class="cls-5" d="M994.51,212.49a1.1,1.1,0,0,1-1.11-1.11v-3.45a1.11,1.11,0,1,1,2.22,0v3.45A1.1,1.1,0,0,1,994.51,212.49Z"/><path class="cls-5" d="M994.51,207.12a.8.8,0,0,1,.79.81v3.45a.79.79,0,1,1-1.59,0v-3.45a.8.8,0,0,1,.79-.81m0-.64a1.42,1.42,0,0,0-1.43,1.45v3.45a1.43,1.43,0,1,0,2.86,0v-3.45a1.42,1.42,0,0,0-1.43-1.45Z"/><path class="cls-5" d="M988.53,194.57a1.08,1.08,0,0,1-.79-.32l-2.46-2.43a1.14,1.14,0,0,1-.34-.84,1,1,0,0,1,.36-.75,1,1,0,0,1,.75-.32,1.16,1.16,0,0,1,.81.33l2.45,2.42a1.11,1.11,0,0,1,.32.8,1.08,1.08,0,0,1-.33.78A1.13,1.13,0,0,1,988.53,194.57Z"/><path class="cls-5" d="M986.06,190.23a.83.83,0,0,1,.58.24l2.45,2.42a.79.79,0,0,1-.56,1.36A.77.77,0,0,1,988,194l-2.45-2.43a.76.76,0,0,1,0-1.12.71.71,0,0,1,.54-.24m0-.64a1.48,1.48,0,0,0-1.43,1.38,1.45,1.45,0,0,0,.44,1.08l2.45,2.43a1.41,1.41,0,0,0,1,.41,1.44,1.44,0,0,0,1-.4,1.41,1.41,0,0,0,.43-1,1.43,1.43,0,0,0-.42-1L987.09,190a1.47,1.47,0,0,0-1-.42Z"/><path class="cls-5" d="M986.09,209a1.17,1.17,0,0,1-.79-.33,1.05,1.05,0,0,1-.34-.75,1.14,1.14,0,0,1,.33-.82l2.43-2.45a1.09,1.09,0,0,1,.78-.32,1.23,1.23,0,0,1,.81.3,1.14,1.14,0,0,1,0,1.58l-2.45,2.45a1.09,1.09,0,0,1-.78.34Z"/><path class="cls-5" d="M988.5,204.66a.92.92,0,0,1,.6.23.82.82,0,0,1,0,1.11l-2.45,2.45a.78.78,0,0,1-.55.24.84.84,0,0,1-.57-.24.77.77,0,0,1,0-1.11l2.43-2.45a.77.77,0,0,1,.56-.23m0-.64a1.4,1.4,0,0,0-1,.42l-2.42,2.45a1.45,1.45,0,0,0-.42,1,1.37,1.37,0,0,0,.44,1,1.48,1.48,0,0,0,1,.42,1.42,1.42,0,0,0,1-.43l2.45-2.45a1.45,1.45,0,0,0,0-2l0,0,0,0a1.55,1.55,0,0,0-1-.38Z"/><path class="cls-5" d="M982.6,200.58a1.12,1.12,0,0,1-1.13-1.11,1.11,1.11,0,0,1,1.13-1.11H986a1.11,1.11,0,0,1,0,2.23Z"/><path class="cls-5" d="M986,198.67a.79.79,0,0,1,0,1.59H982.6a.79.79,0,1,1,0-1.59H986m0-.64H982.6a1.42,1.42,0,0,0-1.44,1.43,1.44,1.44,0,0,0,1.44,1.43H986a1.43,1.43,0,0,0,0-2.86Z"/><path class="cls-5" d="M752.86,233.52a1.12,1.12,0,0,1-1.13-1.11,1.11,1.11,0,0,1,1.13-1.11h3.42a1.11,1.11,0,0,1,1.13,1.11,1.12,1.12,0,0,1-1.13,1.11Z"/><path class="cls-5" d="M756.28,231.61a.79.79,0,1,1,0,1.59h-3.42a.79.79,0,1,1,0-1.59h3.42m0-.64h-3.42a1.42,1.42,0,0,0-1.44,1.43,1.44,1.44,0,0,0,1.44,1.43h3.42a1.44,1.44,0,0,0,1.44-1.43,1.42,1.42,0,0,0-1.44-1.43Z"/><path class="cls-5" d="M750.37,227.51a1,1,0,0,1-.81-.34,1,1,0,0,1-.32-.71,1.15,1.15,0,0,1,.34-.84l2.42-2.42a1.13,1.13,0,0,1,.81-.34,1.06,1.06,0,0,1,.76.31,1.11,1.11,0,0,1,0,1.6l-2.41,2.43A1,1,0,0,1,750.37,227.51Z"/><path class="cls-5" d="M752.82,223.17a.75.75,0,0,1,.53.22.79.79,0,0,1,0,1.16L750.94,227a.81.81,0,0,1-1.13,0,.76.76,0,0,1,0-1.13l2.43-2.42a.82.82,0,0,1,.58-.25m0-.64a1.45,1.45,0,0,0-1,.44l-2.43,2.42a1.46,1.46,0,0,0-.43,1.08,1.45,1.45,0,0,0,2.48.93L753.8,225a1.42,1.42,0,0,0,0-2.05,1.37,1.37,0,0,0-1-.4Z"/><path class="cls-5" d="M752.79,242a1.11,1.11,0,0,1-.78-.34l-2.42-2.42a1.11,1.11,0,0,1,.79-1.91,1.09,1.09,0,0,1,.79.32l2.41,2.45a.94.94,0,0,1,.27,1.08,1.14,1.14,0,0,1-1,.82Z"/><path class="cls-5" d="M750.38,237.6a.78.78,0,0,1,.56.23l2.41,2.45c.54.4.1,1.36-.53,1.36h0a.8.8,0,0,1-.56-.25L749.81,239a.78.78,0,0,1,0-1.14.81.81,0,0,1,.57-.23m0-.64a1.43,1.43,0,0,0-1,2.45l2.43,2.42a1.43,1.43,0,0,0,1,.43h0a1.47,1.47,0,0,0,1.37-1,1.29,1.29,0,0,0-.38-1.43l-2.38-2.42a1.4,1.4,0,0,0-1-.42Z"/><path class="cls-5" d="M744.37,225a1.1,1.1,0,0,1-1.11-1.11v-3.44a1.11,1.11,0,1,1,2.22,0v3.44A1.1,1.1,0,0,1,744.37,225Z"/><path class="cls-5" d="M744.37,219.69a.78.78,0,0,1,.79.79v3.44a.79.79,0,0,1-1.59,0v-3.44a.78.78,0,0,1,.79-.79m0-.64a1.41,1.41,0,0,0-1.43,1.43v3.44a1.43,1.43,0,0,0,2.86,0v-3.44a1.41,1.41,0,0,0-1.43-1.43Z"/><path class="cls-5" d="M744.37,245.43a1.1,1.1,0,0,1-1.11-1.11v-3.45a1.11,1.11,0,1,1,2.22,0v3.45A1.1,1.1,0,0,1,744.37,245.43Z"/><path class="cls-5" d="M744.37,240.06a.8.8,0,0,1,.79.81v3.45a.79.79,0,1,1-1.59,0v-3.45a.8.8,0,0,1,.79-.81m0-.64a1.42,1.42,0,0,0-1.43,1.45v3.45a1.43,1.43,0,1,0,2.86,0v-3.45a1.42,1.42,0,0,0-1.43-1.45Z"/><path class="cls-5" d="M738.39,227.52a1.08,1.08,0,0,1-.79-.32l-2.46-2.43a1.14,1.14,0,0,1-.34-.84,1,1,0,0,1,.36-.75,1,1,0,0,1,.75-.32,1.16,1.16,0,0,1,.81.33l2.45,2.42a1.12,1.12,0,0,1,.32.81,1.09,1.09,0,0,1-.33.78A1.14,1.14,0,0,1,738.39,227.52Z"/><path class="cls-5" d="M735.92,223.17a.83.83,0,0,1,.58.24l2.45,2.42a.79.79,0,0,1-.56,1.36.77.77,0,0,1-.56-.23l-2.45-2.43a.76.76,0,0,1,0-1.12.71.71,0,0,1,.54-.24m0-.64a1.48,1.48,0,0,0-1.43,1.38,1.45,1.45,0,0,0,.44,1.08l2.45,2.43a1.41,1.41,0,0,0,1,.41,1.44,1.44,0,0,0,1-.4,1.41,1.41,0,0,0,.43-1,1.43,1.43,0,0,0-.42-1L736.95,223a1.47,1.47,0,0,0-1-.42Z"/><path class="cls-5" d="M735.95,242a1.17,1.17,0,0,1-.79-.33,1.05,1.05,0,0,1-.34-.75,1.13,1.13,0,0,1,.33-.82l2.43-2.45a1.09,1.09,0,0,1,.78-.32,1.23,1.23,0,0,1,.81.3,1.14,1.14,0,0,1,0,1.58l-2.45,2.45a1.09,1.09,0,0,1-.78.34Z"/><path class="cls-5" d="M738.36,237.6a.92.92,0,0,1,.6.23.82.82,0,0,1,0,1.11l-2.45,2.45a.78.78,0,0,1-.55.24.84.84,0,0,1-.57-.24.77.77,0,0,1,0-1.11l2.43-2.45a.77.77,0,0,1,.56-.23m0-.64a1.4,1.4,0,0,0-1,.42l-2.42,2.45a1.45,1.45,0,0,0-.42,1,1.37,1.37,0,0,0,.44,1,1.48,1.48,0,0,0,1,.42,1.42,1.42,0,0,0,1-.43l2.45-2.45a1.45,1.45,0,0,0,0-2l0,0,0,0a1.55,1.55,0,0,0-1-.38Z"/><path class="cls-5" d="M732.46,233.52a1.12,1.12,0,0,1-1.13-1.11,1.11,1.11,0,0,1,1.13-1.11h3.45a1.11,1.11,0,0,1,0,2.23Z"/><path class="cls-5" d="M735.91,231.61a.79.79,0,0,1,0,1.59h-3.45a.79.79,0,1,1,0-1.59h3.45m0-.64h-3.45a1.42,1.42,0,0,0-1.44,1.43,1.44,1.44,0,0,0,1.44,1.43h3.45a1.43,1.43,0,0,0,0-2.86Z"/><path class="cls-5" d="M333.59,197.23a1.11,1.11,0,1,1,0-2.23H337a1.11,1.11,0,1,1,0,2.23Z"/><path class="cls-5" d="M337,195.32a.79.79,0,1,1,0,1.59h-3.42a.79.79,0,1,1,0-1.59H337m0-.64h-3.42a1.42,1.42,0,0,0-1.44,1.43,1.44,1.44,0,0,0,1.44,1.43H337a1.44,1.44,0,0,0,1.44-1.43,1.42,1.42,0,0,0-1.44-1.43Z"/><path class="cls-5" d="M331.11,191.21a1,1,0,0,1-.81-.34,1,1,0,0,1-.32-.71,1.15,1.15,0,0,1,.34-.84l2.43-2.42a1.13,1.13,0,0,1,.81-.34,1.06,1.06,0,0,1,.76.31,1.11,1.11,0,0,1,0,1.6l-2.41,2.43A1,1,0,0,1,331.11,191.21Z"/><path class="cls-5" d="M333.55,186.87a.75.75,0,0,1,.53.22.79.79,0,0,1,0,1.16l-2.41,2.43a.81.81,0,0,1-1.13,0,.76.76,0,0,1,0-1.13l2.43-2.42a.82.82,0,0,1,.58-.25m0-.64a1.45,1.45,0,0,0-1,.44l-2.43,2.42a1.46,1.46,0,0,0-.43,1.08,1.45,1.45,0,0,0,2.48.93l2.39-2.41a1.42,1.42,0,0,0,0-2.05,1.37,1.37,0,0,0-1-.4Z"/><path class="cls-5" d="M333.52,205.66a1.11,1.11,0,0,1-.78-.34l-2.42-2.42a1.11,1.11,0,0,1,.79-1.91,1.09,1.09,0,0,1,.78.32l2.41,2.45a.94.94,0,0,1,.28,1.08,1.14,1.14,0,0,1-1,.82Z"/><path class="cls-5" d="M331.11,201.3a.78.78,0,0,1,.56.23l2.41,2.45c.54.4.1,1.36-.53,1.36h0a.8.8,0,0,1-.56-.25l-2.43-2.42a.78.78,0,0,1,0-1.14.81.81,0,0,1,.57-.23m0-.64a1.43,1.43,0,0,0-1,2.45l2.43,2.42a1.43,1.43,0,0,0,1,.43h0a1.47,1.47,0,0,0,1.37-1,1.29,1.29,0,0,0-.38-1.43l-2.38-2.42a1.4,1.4,0,0,0-1-.42Z"/><path class="cls-5" d="M325.1,188.73a1.1,1.1,0,0,1-1.11-1.11v-3.44a1.11,1.11,0,1,1,2.22,0v3.44A1.1,1.1,0,0,1,325.1,188.73Z"/><path class="cls-5" d="M325.1,183.39a.78.78,0,0,1,.79.79v3.44a.79.79,0,0,1-1.59,0v-3.44a.78.78,0,0,1,.79-.79m0-.64a1.41,1.41,0,0,0-1.43,1.43v3.44a1.43,1.43,0,0,0,2.86,0v-3.44a1.41,1.41,0,0,0-1.43-1.43Z"/><path class="cls-5" d="M325.1,209.14A1.1,1.1,0,0,1,324,208v-3.45a1.11,1.11,0,1,1,2.22,0V208A1.1,1.1,0,0,1,325.1,209.14Z"/><path class="cls-5" d="M325.1,203.76a.8.8,0,0,1,.79.81V208a.79.79,0,1,1-1.59,0v-3.45a.8.8,0,0,1,.79-.81m0-.64a1.42,1.42,0,0,0-1.43,1.45V208a1.43,1.43,0,1,0,2.86,0v-3.45a1.42,1.42,0,0,0-1.43-1.45Z"/><path class="cls-5" d="M319.12,191.22a1.09,1.09,0,0,1-.79-.32l-2.46-2.43a1.14,1.14,0,0,1-.34-.84,1,1,0,0,1,.36-.75,1,1,0,0,1,.75-.32,1.15,1.15,0,0,1,.81.33l2.45,2.42a1.11,1.11,0,0,1,.32.8,1.09,1.09,0,0,1-.33.78A1.13,1.13,0,0,1,319.12,191.22Z"/><path class="cls-5" d="M316.65,186.88a.83.83,0,0,1,.58.24l2.45,2.42a.79.79,0,0,1-.56,1.36.77.77,0,0,1-.56-.23l-2.45-2.43a.76.76,0,0,1,0-1.12.71.71,0,0,1,.54-.24m0-.64a1.48,1.48,0,0,0-1.43,1.38,1.45,1.45,0,0,0,.44,1.08l2.45,2.43a1.41,1.41,0,0,0,1,.41,1.44,1.44,0,0,0,1-.4,1.41,1.41,0,0,0,.43-1,1.43,1.43,0,0,0-.42-1l-2.45-2.42a1.47,1.47,0,0,0-1-.42Z"/><path class="cls-5" d="M316.68,205.65a1.17,1.17,0,0,1-.79-.33,1.05,1.05,0,0,1-.34-.75,1.13,1.13,0,0,1,.33-.82l2.43-2.45a1.09,1.09,0,0,1,.78-.32,1.23,1.23,0,0,1,.81.3,1.14,1.14,0,0,1,0,1.58l-2.46,2.45a1.1,1.1,0,0,1-.78.34Z"/><path class="cls-5" d="M319.09,201.3a.92.92,0,0,1,.6.23.82.82,0,0,1,0,1.11l-2.45,2.45a.78.78,0,0,1-.55.24.84.84,0,0,1-.57-.24.77.77,0,0,1,0-1.11l2.43-2.45a.77.77,0,0,1,.56-.23m0-.64a1.4,1.4,0,0,0-1,.42l-2.42,2.45a1.45,1.45,0,0,0-.42,1,1.37,1.37,0,0,0,.44,1,1.48,1.48,0,0,0,1,.42,1.42,1.42,0,0,0,1-.43l2.45-2.45a1.45,1.45,0,0,0,0-2l0,0,0,0a1.55,1.55,0,0,0-1-.38Z"/><path class="cls-5" d="M313.19,197.23a1.11,1.11,0,1,1,0-2.23h3.45a1.11,1.11,0,0,1,0,2.23Z"/><path class="cls-5" d="M316.64,195.32a.79.79,0,0,1,0,1.59h-3.45a.79.79,0,1,1,0-1.59h3.45m0-.64h-3.45a1.42,1.42,0,0,0-1.44,1.43,1.44,1.44,0,0,0,1.44,1.43h3.45a1.43,1.43,0,0,0,0-2.86Z"/><path class="cls-5" d="M194.55,271.22a8.31,8.31,0,0,0-2-11.59,6.87,6.87,0,0,0-9.58,1.63,5.72,5.72,0,0,0,1.36,8,4.79,4.79,0,0,0,6.68-1.14,4.06,4.06,0,0,0-1-5.65,1.1,1.1,0,1,0-1.27,1.79,1.86,1.86,0,0,1,.44,2.59,2.59,2.59,0,0,1-3.62.62,3.52,3.52,0,0,1-.84-4.9,4.67,4.67,0,0,1,6.51-1.11,6.11,6.11,0,0,1,1.45,8.52,7.92,7.92,0,0,1-11,1.88,10.17,10.17,0,0,1-2.42-14.18,13,13,0,0,1,18.11-3.09,1.1,1.1,0,1,0,1.27-1.8,15.19,15.19,0,0,0-21.18,3.61,12.37,12.37,0,0,0,2.94,17.25A10.12,10.12,0,0,0,194.55,271.22Z"/><path class="cls-5" d="M463.17,252.95a8.31,8.31,0,0,0-11.76,0,6.87,6.87,0,0,0,0,9.72,5.72,5.72,0,0,0,8.08,0,4.79,4.79,0,0,0,0-6.78,4.06,4.06,0,0,0-5.73,0,1.1,1.1,0,1,0,1.56,1.56,1.86,1.86,0,0,1,2.62,0,2.59,2.59,0,0,1,0,3.67,3.52,3.52,0,0,1-5,0,4.67,4.67,0,0,1,0-6.6,6.11,6.11,0,0,1,8.65,0,7.92,7.92,0,0,1,0,11.2,10.17,10.17,0,0,1-14.38,0,13,13,0,0,1,0-18.37,1.1,1.1,0,0,0-1.56-1.56,15.19,15.19,0,0,0,0,21.48,12.37,12.37,0,0,0,17.5,0A10.12,10.12,0,0,0,463.17,252.95Z"/><path class="cls-5" d="M1100.94,248.89a8.31,8.31,0,0,0,5.49,10.4,6.87,6.87,0,0,0,8.59-4.54,5.72,5.72,0,0,0-3.78-7.15,4.79,4.79,0,0,0-6,3.17,4.06,4.06,0,0,0,2.68,5.07,1.1,1.1,0,0,0,.65-2.1,1.86,1.86,0,0,1-1.23-2.32,2.59,2.59,0,0,1,3.24-1.71,3.52,3.52,0,0,1,2.32,4.4,4.67,4.67,0,0,1-5.84,3.09,6.11,6.11,0,0,1-4-7.64,7.92,7.92,0,0,1,9.9-5.23,10.17,10.17,0,0,1,6.72,12.72,13,13,0,0,1-16.24,8.58,1.1,1.1,0,1,0-.65,2.1,15.19,15.19,0,0,0,19-10,12.37,12.37,0,0,0-8.17-15.47A10.12,10.12,0,0,0,1100.94,248.89Z"/><path class="cls-5" d="M1144.15,182.45a5.55,5.55,0,0,0-7.26,3l-1.36,3.25a5.53,5.53,0,0,0-6.83-1.63,5.53,5.53,0,0,0-6-3.73l1.36-3.25a5.55,5.55,0,0,0-10.23-4.29l-7,16.71-1.07,2.56-2.15,5.11a15.27,15.27,0,0,0,8.16,20l5.11,2.15a15.27,15.27,0,0,0,20-8.16l10.23-24.38A5.55,5.55,0,0,0,1144.15,182.45Zm-15.59,8.49a2.77,2.77,0,1,1,5.11,2.15L1131.2,199a5.51,5.51,0,0,0-2.27-1.76l-2.56-1.07Zm-7.67-3.22a2.77,2.77,0,0,1,5.11,2.15l-2.18,5.2-5.11-2.15,2.18-5.2Zm-4.45-10.89a2.77,2.77,0,1,1,5.11,2.15l-5.44,13a9.69,9.69,0,0,0-6.21.46l6.53-15.56Zm17.9,36.18a12.49,12.49,0,0,1-16.34,6.68l-5.11-2.15a12.49,12.49,0,0,1-6.68-16.34l1.07-2.56a6.94,6.94,0,0,1,9.08-3.71l11.51,4.83a2.77,2.77,0,0,1-2.15,5.11l-11.51-4.83a1.39,1.39,0,1,0-1.07,2.56,9.72,9.72,0,0,1,5.19,12.71,1.39,1.39,0,0,0,2.56,1.07,12.46,12.46,0,0,0-.53-10.75l4.28,1.8a5.55,5.55,0,0,0,7.26-3l7.55-18a2.77,2.77,0,1,1,5.11,2.15L1134.33,213Z"/><path class="cls-5" d="M1282.38,267.54a8.31,8.31,0,0,0,8.62-8,6.87,6.87,0,0,0-6.61-7.12,5.72,5.72,0,0,0-5.93,5.5,4.79,4.79,0,0,0,4.61,5,4.06,4.06,0,0,0,4.2-3.9,1.1,1.1,0,0,0-2.2-.08,1.86,1.86,0,0,1-1.92,1.78,2.59,2.59,0,0,1-2.49-2.69,3.52,3.52,0,0,1,3.64-3.38,4.67,4.67,0,0,1,4.49,4.84,6.11,6.11,0,0,1-6.34,5.88,7.92,7.92,0,0,1-7.62-8.21,10.17,10.17,0,0,1,10.54-9.78,13,13,0,0,1,12.49,13.46,1.1,1.1,0,1,0,2.2.08,15.19,15.19,0,0,0-14.61-15.75,12.37,12.37,0,0,0-12.82,11.9A10.12,10.12,0,0,0,1282.38,267.54Z"/><path class="cls-5" d="M1251.82,256.87a1.11,1.11,0,1,1,0-2.23h3.42a1.11,1.11,0,1,1,0,2.23Z"/><path class="cls-5" d="M1255.24,255a.79.79,0,1,1,0,1.59h-3.42a.79.79,0,1,1,0-1.59h3.42m0-.64h-3.42a1.42,1.42,0,0,0-1.44,1.43,1.44,1.44,0,0,0,1.44,1.43h3.42a1.44,1.44,0,0,0,1.44-1.43,1.42,1.42,0,0,0-1.44-1.43Z"/><path class="cls-5" d="M1249.34,250.86a1,1,0,0,1-.81-.34,1,1,0,0,1-.32-.71,1.15,1.15,0,0,1,.34-.84l2.42-2.42a1.13,1.13,0,0,1,.81-.34,1.06,1.06,0,0,1,.76.31,1.11,1.11,0,0,1,0,1.6l-2.41,2.43A1,1,0,0,1,1249.34,250.86Z"/><path class="cls-5" d="M1251.78,246.51a.75.75,0,0,1,.53.22.79.79,0,0,1,0,1.16l-2.41,2.43a.81.81,0,0,1-1.13,0,.76.76,0,0,1,0-1.13l2.43-2.42a.82.82,0,0,1,.58-.25m0-.64a1.45,1.45,0,0,0-1,.44l-2.43,2.42a1.46,1.46,0,0,0-.43,1.08,1.45,1.45,0,0,0,2.48.93l2.39-2.41a1.42,1.42,0,0,0,0-2.05,1.37,1.37,0,0,0-1-.4Z"/><path class="cls-5" d="M1251.75,265.3a1.11,1.11,0,0,1-.78-.34l-2.42-2.42a1.11,1.11,0,0,1,.79-1.91,1.09,1.09,0,0,1,.78.32l2.41,2.45a.94.94,0,0,1,.27,1.08,1.14,1.14,0,0,1-1,.82Z"/><path class="cls-5" d="M1249.34,260.95a.78.78,0,0,1,.56.23l2.41,2.45c.54.4.1,1.36-.53,1.36h0a.8.8,0,0,1-.56-.25l-2.43-2.42a.78.78,0,0,1,0-1.14.81.81,0,0,1,.57-.23m0-.64a1.43,1.43,0,0,0-1,2.45l2.43,2.42a1.43,1.43,0,0,0,1,.43h0a1.47,1.47,0,0,0,1.37-1,1.29,1.29,0,0,0-.38-1.43l-2.38-2.42a1.4,1.4,0,0,0-1-.42Z"/><path class="cls-5" d="M1243.33,248.38a1.1,1.1,0,0,1-1.11-1.11v-3.44a1.11,1.11,0,1,1,2.22,0v3.44A1.1,1.1,0,0,1,1243.33,248.38Z"/><path class="cls-5" d="M1243.33,243a.78.78,0,0,1,.79.79v3.44a.79.79,0,0,1-1.59,0v-3.44a.78.78,0,0,1,.79-.79m0-.64a1.41,1.41,0,0,0-1.43,1.43v3.44a1.43,1.43,0,0,0,2.86,0v-3.44a1.41,1.41,0,0,0-1.43-1.43Z"/><path class="cls-5" d="M1243.33,268.78a1.1,1.1,0,0,1-1.11-1.11v-3.45a1.11,1.11,0,1,1,2.22,0v3.45A1.1,1.1,0,0,1,1243.33,268.78Z"/><path class="cls-5" d="M1243.33,263.41a.8.8,0,0,1,.79.81v3.45a.79.79,0,1,1-1.59,0v-3.45a.8.8,0,0,1,.79-.81m0-.64a1.42,1.42,0,0,0-1.43,1.45v3.45a1.43,1.43,0,1,0,2.86,0v-3.45a1.42,1.42,0,0,0-1.43-1.45Z"/><path class="cls-5" d="M1237.35,250.86a1.08,1.08,0,0,1-.79-.32l-2.46-2.43a1.14,1.14,0,0,1-.34-.84,1,1,0,0,1,.36-.75,1,1,0,0,1,.75-.32,1.16,1.16,0,0,1,.81.33l2.45,2.42a1.11,1.11,0,0,1,.32.81,1.08,1.08,0,0,1-.33.78A1.13,1.13,0,0,1,1237.35,250.86Z"/><path class="cls-5" d="M1234.88,246.52a.83.83,0,0,1,.58.24l2.45,2.42a.79.79,0,0,1-.56,1.36.77.77,0,0,1-.56-.23l-2.45-2.43a.76.76,0,0,1,0-1.12.71.71,0,0,1,.54-.24m0-.64a1.48,1.48,0,0,0-1.43,1.38,1.45,1.45,0,0,0,.44,1.08l2.45,2.43a1.41,1.41,0,0,0,1,.41,1.44,1.44,0,0,0,1-.4,1.41,1.41,0,0,0,.43-1,1.43,1.43,0,0,0-.42-1l-2.45-2.42a1.47,1.47,0,0,0-1-.42Z"/><path class="cls-5" d="M1234.91,265.3a1.17,1.17,0,0,1-.79-.33,1.05,1.05,0,0,1-.34-.75,1.13,1.13,0,0,1,.33-.81l2.43-2.45a1.09,1.09,0,0,1,.78-.32,1.23,1.23,0,0,1,.81.3,1.14,1.14,0,0,1,0,1.58l-2.45,2.45a1.09,1.09,0,0,1-.78.34Z"/><path class="cls-5" d="M1237.32,260.95a.92.92,0,0,1,.6.23.82.82,0,0,1,0,1.11l-2.45,2.45a.78.78,0,0,1-.55.24.84.84,0,0,1-.57-.24.77.77,0,0,1,0-1.11l2.43-2.45a.77.77,0,0,1,.56-.23m0-.64a1.4,1.4,0,0,0-1,.42l-2.42,2.45a1.45,1.45,0,0,0-.42,1,1.37,1.37,0,0,0,.44,1,1.48,1.48,0,0,0,1,.42,1.42,1.42,0,0,0,1-.43l2.45-2.45a1.45,1.45,0,0,0,0-2l0,0,0,0a1.55,1.55,0,0,0-1-.38Z"/><path class="cls-5" d="M1231.42,256.87a1.11,1.11,0,1,1,0-2.23h3.45a1.11,1.11,0,0,1,0,2.23Z"/><path class="cls-5" d="M1234.87,255a.79.79,0,0,1,0,1.59h-3.45a.79.79,0,1,1,0-1.59h3.45m0-.64h-3.45a1.42,1.42,0,0,0-1.44,1.43,1.44,1.44,0,0,0,1.44,1.43h3.45a1.43,1.43,0,0,0,0-2.86Z"/></svg>