<svg id="Layer_1" data-name="Layer 1" xmlns="http://www.w3.org/2000/svg" viewBox="0 0 596.26 424"><defs><style>.cls-1{fill:#fff;}.cls-2{fill:#f2623e;}</style></defs><title>Artboard 1</title><path class="cls-1" d="M169.6,21.33s71-48,347,0c0,0-105,130-57,351,0,0-131-38-290,0C169.6,372.33,66.6,193.33,169.6,21.33Z"/><path class="cls-1" d="M156.67,343l-37,50s-16-80-51-32l51,45,79-43Z"/><path class="cls-1" d="M453.77,340.83l37,50s16-80,51-32l-51,45-79-43Z"/><path class="cls-1" d="M85.75,134.45c-4.53-9.14-6.08-31.24-6.55-34s-2.41-11.66-10.73-9.71c-9.9,2.32-8.06,10.45-6.85,16.86s3.32,9.12,2.28,12-4.23.62-4.23.62-26.34-18-34.44-20.25S13,107.93,17,111.78c3.49,3.38,19.56,12.71,26.43,17-7.59-2.67-28.82-9.92-35.67-10-8.4-.12-9.82,10.73-5,13.47,4.57,2.6,25.06,8.24,31.48,10.42-8.84.17-22.66.69-27.3,2.28-7,2.41-5.09,11.82-.31,12.65,5,.86,26.89-1,30.49-.76l3.07.11c-6.77,3-16.79,7.65-20.13,10.16-5.19,3.91-.9,11.22,3.33,10.61,4.41-.64,22.24-8.18,25.32-8.94,2.58-.64,8.52-3.45,28.32-4.28L166,187.17l2-9.86S90.28,143.59,85.75,134.45Z"/><path class="cls-2" d="M62.31,129.38a29.9,29.9,0,0,0-.6,6.78,20.38,20.38,0,0,0,1.18,6.29,20.75,20.75,0,0,0,3,5.63A31.39,31.39,0,0,0,70.64,153a13.55,13.55,0,0,1-6.44-3.33A15.36,15.36,0,0,1,59.36,136,13.4,13.4,0,0,1,62.31,129.38Z"/><path class="cls-2" d="M61.68,145.61A10.27,10.27,0,0,0,58,145.3a18.54,18.54,0,0,0-4,.76,22.56,22.56,0,0,0-7.35,3.83,23.3,23.3,0,0,1,6.79-5.22,20.43,20.43,0,0,1,4.14-1.59,12.83,12.83,0,0,1,4.69-.41Z"/><path class="cls-1" d="M510.51,134.45c4.53-9.14,6.08-31.24,6.55-34s2.41-11.66,10.73-9.71c9.9,2.32,8.06,10.45,6.85,16.86s-3.32,9.12-2.28,12,4.23.62,4.23.62,26.34-18,34.44-20.25,12.19,7.94,8.22,11.79c-3.49,3.38-19.56,12.71-26.43,17,7.59-2.67,28.82-9.92,35.67-10,8.4-.12,9.82,10.73,5,13.47-4.57,2.6-25.06,8.24-31.48,10.42,8.84.17,22.66.69,27.3,2.28,7,2.41,5.09,11.82.31,12.65-5,.86-26.89-1-30.49-.76l-3.07.11c6.77,3,16.79,7.65,20.13,10.16,5.19,3.91.9,11.22-3.33,10.61-4.41-.64-22.24-8.18-25.32-8.94-2.58-.64-8.52-3.45-28.32-4.28L430.3,187.17l-2-9.86S506,143.59,510.51,134.45Z"/><path class="cls-2" d="M533.95,129.38a13.4,13.4,0,0,1,2.94,6.63,15.36,15.36,0,0,1-4.83,13.67,13.55,13.55,0,0,1-6.44,3.33,31.39,31.39,0,0,0,4.71-4.93,20.75,20.75,0,0,0,3-5.63,20.38,20.38,0,0,0,1.18-6.29A29.9,29.9,0,0,0,533.95,129.38Z"/><path class="cls-2" d="M534,142.67a12.83,12.83,0,0,1,4.69.41,20.43,20.43,0,0,1,4.14,1.59,23.3,23.3,0,0,1,6.79,5.22,22.56,22.56,0,0,0-7.35-3.83,18.54,18.54,0,0,0-4-.76,10.27,10.27,0,0,0-3.71.31Z"/><path class="cls-2" d="M142.1,174.37A531.91,531.91,0,0,1,174.69,63.63c9.27-.75,18.8-2.11,27.94-2.28,21.74-.41,28.37,20.83,23.3,38.84-6.47,23-22.24,43.27-48.16,43.65l-6.11,0c-2.28,11.22-4.27,22.34-6,33.65Zm36.69-59.22,6-.07c11-.14,14.37-5,16.71-12.92S200,89.53,192.46,89.67l-5.93.11C183.17,99.89,181.62,105,178.8,115.15Z"/><path class="cls-2" d="M279.56,57.72c28.45-.72,25.26,41.84,21.56,60.8-4.81,24.69-18.11,58.89-47.65,58.91-30.25,0-31.56-39.85-26.3-61.27C233.36,91,250.58,58.45,279.56,57.72Zm-27.68,58.14c-2.13,9.3-5.16,31.62,6.18,32.3,10.94.65,16.25-19.27,18.33-29.36,1.7-8.24,5-31.56-4.83-32.18C260.79,85.94,254.34,105.07,251.88,115.86Z"/><path class="cls-2" d="M361.8,97.25s-6.49-11.38-14-11.24A8.08,8.08,0,0,0,340,92.69c.34,7.77,9.56,9.52,14.84,13.57,10.54,8.1,14.55,18.65,12.4,32.14-3.27,20.54-19.6,39.16-41.5,38.93-12.55-.14-23.13-9.17-29.24-19.6q8.08-12.37,16.32-24.64s9.91,13.85,17.7,13.81c6.12,0,8.93-4.17,9.35-6.64-1-8.19-9.56-8.89-15.24-13.39-10.62-8.42-13.84-20.59-10.61-33.74C318.5,75,334.48,55.54,353.87,55.7c9.92.08,18.1,7.33,23.27,15.78Q369.52,84.4,361.8,97.25Z"/><path class="cls-2" d="M444.88,86.73,422,88.8q-4.61,43.35-8.82,86.74l-25.5-1.62Q393,131.49,399.3,89.2l-22.34,2q2.78-16.53,5.68-33l63.75-3.34Q445.66,70.8,444.88,86.73Z"/><path class="cls-2" d="M214.81,308.89q-26.5.85-53,1.67c-7-37.86-8.5-75.08-5.4-113.44l25.73,0a498.18,498.18,0,0,0-1.43,84.41l29-1C211.09,290,212.8,299.52,214.81,308.89Z"/><path class="cls-2" d="M251.8,194c29.48.12,34.27,39.44,33.67,62-.58,21.79-6.68,58-34.69,57-28.18-1.07-39.76-37.53-39.94-61.05C210.65,226.57,221.91,193.93,251.8,194Zm-16.21,58.16c0,10.08,1.61,31.62,13.16,32.22,11.27.58,12-19.86,12-28.7.07-9-.43-31.93-11.39-32.46C237.7,222.7,235.62,242.28,235.58,252.21Z"/><path class="cls-2" d="M335.17,194.16c12,.18,21,8.72,27.17,18.22-6.06,8.83-9,13.24-14.88,22,0,0-7.06-10-14.12-9.81-14.06.44-15.6,21-16,31.81-.38,9.6,1.39,27.62,12.71,28.73,8.88.87,17.13-11.14,17.13-11.14,4.74,9.58,7.13,14.37,11.89,24-6.38,9.11-16.12,16.94-27.24,17.22-31.15.8-40.5-36.72-39.57-62.32C293.16,227,304,193.69,335.17,194.16Z"/><path class="cls-2" d="M402.87,194.25c30.19.11,33.2,41.17,30.8,63.57-2.48,23.08-13.06,59.93-41.59,59s-34.34-41.25-32.77-63.19C361.11,228.22,372.6,194.14,402.87,194.25ZM384,253.9c-.77,9.42-1.48,32.62,10,33.24,11.05.6,14.1-20.2,15-29.63.81-8.82,1.71-32.82-9.32-33.34C388,223.63,384.88,243.65,384,253.9Z"/></svg>