<?xml version="1.0" standalone="no"?>
<!DOCTYPE svg PUBLIC "-//W3C//DTD SVG 20010904//EN"
 "http://www.w3.org/TR/2001/REC-SVG-20010904/DTD/svg10.dtd">
<svg version="1.0" xmlns="http://www.w3.org/2000/svg"
 width="1084.000000pt" height="1084.000000pt" viewBox="0 0 1084.000000 1084.000000"
 preserveAspectRatio="xMidYMid meet">
<metadata>
Created by potrace 1.11, written by Peter Selinger 2001-2013
</metadata>
<g transform="translate(0.000000,1084.000000) scale(0.100000,-0.100000)"
fill="#000000" stroke="none">
<path d="M1309 10833 c0 -4 -2 -15 -4 -23 -5 -29 -44 -225 -49 -250 -3 -14
-41 -207 -86 -430 -45 -223 -84 -416 -86 -430 -3 -14 -18 -90 -34 -170 -16
-80 -32 -156 -34 -170 -3 -14 -23 -117 -46 -230 -23 -113 -44 -216 -46 -230
-3 -14 -39 -194 -80 -400 -42 -206 -78 -386 -80 -400 -3 -14 -18 -90 -34 -170
-16 -80 -32 -156 -34 -170 -3 -14 -23 -117 -46 -230 -23 -113 -44 -216 -46
-230 -3 -14 -18 -90 -34 -170 -16 -80 -32 -156 -34 -170 -3 -14 -21 -104 -40
-200 -19 -96 -37 -186 -40 -200 -3 -14 -24 -117 -47 -230 -22 -113 -42 -214
-44 -225 -2 -11 -17 -87 -34 -170 -16 -82 -32 -161 -35 -175 -3 -14 -21 -104
-40 -200 -19 -96 -37 -186 -40 -200 -3 -14 -23 -117 -46 -230 -23 -113 -44
-216 -46 -230 -3 -14 -18 -90 -34 -170 -16 -80 -32 -156 -34 -170 -3 -14 -16
-81 -30 -149 -14 -68 -26 -127 -26 -132 0 -4 344 -7 765 -7 l764 0 11 52 c5
28 12 62 15 76 3 14 16 81 30 150 13 69 26 136 29 150 2 14 7 36 10 50 3 14 8
36 10 50 2 14 7 36 10 50 3 14 8 36 10 50 2 14 11 59 20 100 8 41 19 100 25
130 6 30 13 66 16 80 3 14 8 36 10 50 5 28 9 48 35 180 11 52 21 106 24 120 2
14 7 36 10 50 3 14 8 39 11 55 46 250 77 400 85 409 5 4 408 10 897 12 488 1
906 5 928 8 22 3 72 8 110 11 97 8 133 12 254 30 1279 193 2145 914 2386 1985
55 242 69 370 69 645 1 313 -24 494 -101 725 -233 705 -875 1170 -1803 1305
-59 9 -81 12 -165 20 -38 4 -81 10 -95 13 -42 8 -3060 14 -3061 5z m2721
-1244 c36 -5 81 -11 100 -13 71 -9 189 -37 256 -60 294 -100 482 -276 564
-526 21 -65 25 -83 40 -175 8 -51 6 -357 -3 -372 -3 -4 -8 -30 -11 -57 -4 -27
-13 -74 -22 -105 -77 -299 -223 -513 -469 -689 -90 -63 -347 -176 -451 -196
-16 -3 -72 -15 -124 -25 -52 -11 -117 -23 -145 -26 -27 -3 -66 -8 -85 -11 -48
-8 -1525 -13 -1537 -5 -6 4 7 89 33 216 24 116 45 224 48 240 3 17 8 41 11 55
3 14 7 34 9 45 2 11 20 99 40 195 19 96 38 190 41 209 3 19 7 37 9 40 2 3 7
22 10 41 3 19 17 94 32 165 14 72 28 141 31 155 2 14 17 86 33 160 15 74 31
151 34 170 3 19 10 55 15 80 16 79 41 202 46 231 3 15 16 79 30 143 14 64 25
118 25 121 0 9 1370 4 1440 -6z"/>
<path d="M7080 6575 c0 -1 -31 -156 -69 -345 -38 -190 -71 -358 -74 -375 -3
-16 -35 -176 -71 -355 -37 -179 -68 -336 -71 -350 -2 -14 -52 -261 -110 -550
-58 -289 -108 -536 -111 -550 -2 -14 -43 -218 -90 -455 -48 -236 -88 -439 -90
-450 -28 -142 -36 -185 -40 -210 -3 -16 -7 -37 -10 -45 -3 -8 -8 -28 -11 -45
-2 -16 -15 -82 -28 -145 -13 -63 -27 -131 -30 -150 -3 -19 -31 -156 -61 -305
-30 -148 -57 -284 -60 -300 -2 -17 -16 -84 -30 -150 -13 -66 -27 -131 -30
-145 -2 -14 -7 -36 -9 -50 -3 -14 -8 -36 -10 -50 -3 -14 -12 -61 -21 -105 -8
-44 -18 -93 -20 -110 -3 -16 -7 -37 -10 -45 -3 -8 -8 -28 -11 -45 -4 -24 -37
-190 -79 -395 -85 -418 -164 -832 -160 -838 2 -4 1085 -7 2407 -7 2126 0 2402
2 2404 15 2 8 8 40 14 71 6 30 14 69 17 85 3 16 23 117 46 224 22 107 42 204
44 215 2 11 6 31 9 45 3 14 7 34 9 45 3 16 56 272 72 350 8 42 13 61 23 105 6
25 11 54 11 65 0 20 -4 20 -1632 20 -898 -1 -1638 1 -1644 2 -8 3 -4 40 13
121 13 64 25 126 27 137 2 11 20 99 40 195 19 96 37 189 40 205 3 17 17 84 30
150 14 66 28 136 31 155 3 19 8 42 10 50 2 8 6 26 9 40 2 14 11 57 19 95 9 39
18 86 21 105 3 19 15 78 26 130 11 52 23 109 26 125 2 17 12 64 20 105 9 41
18 86 20 100 13 68 128 640 149 740 14 63 27 129 30 145 2 17 23 120 45 230
23 110 44 214 47 230 2 17 20 104 38 195 19 91 36 176 38 190 3 14 12 59 20
100 9 41 18 86 21 100 2 14 31 160 65 325 33 165 63 318 67 340 3 22 8 43 10
46 2 3 6 21 9 40 3 19 19 99 36 179 53 258 60 295 65 320 6 31 23 117 29 150
3 14 8 36 10 50 3 14 12 59 20 100 9 41 18 89 20 105 l5 30 -765 0 c-421 0
-765 0 -765 0z"/>
</g>
</svg>
