<svg id="Layer_1" data-name="Layer 1" xmlns="http://www.w3.org/2000/svg" viewBox="0 0 32 32"><defs><style>.cls-1{fill:#fff;}</style></defs><title>Artboard 1</title><g id="Flat_copy" data-name="Flat copy"><path class="cls-1" d="M22.06,7.93H9.94a2,2,0,0,0-2,2V22.06a2,2,0,0,0,2,2H22.06a2,2,0,0,0,2-2V9.95A2,2,0,0,0,22.06,7.93Zm-6,4.9A3.14,3.14,0,1,1,12.77,16,3.19,3.19,0,0,1,16,12.83Zm6,8.72c0,.35-.15.5-.5.5H10.45c-.35,0-.51-.15-.51-.5V14.49l1.26.27A4.7,4.7,0,0,0,11,16.15a5,5,0,0,0,10,0,4.7,4.7,0,0,0-.21-1.39l1.23-.27v7.07Zm0-9.08a.5.5,0,0,1-.5.51h-2a.5.5,0,0,1-.5-.51v-2a.5.5,0,0,1,.5-.51h2a.5.5,0,0,1,.5.51Z"/></g></svg>