<svg id="Layer_1" data-name="Layer 1" xmlns="http://www.w3.org/2000/svg" viewBox="0 0 64 64"><defs><style>.cls-1{fill:#fff;}</style></defs><title>Artboard 1</title><g id="Layer_3" data-name="Layer 3"><g id="Outline_Filled" data-name="Outline Filled"><path class="cls-1" d="M32.24,48.83h-.48a8.32,8.32,0,0,1-5.09-2,7.42,7.42,0,0,0-2.95-1.5,9.37,9.37,0,0,0-1.55-.13,10.66,10.66,0,0,0-2.15.24,4.61,4.61,0,0,1-.8.12.5.5,0,0,1-.56-.4c-.09-.3-.15-.6-.22-.88-.16-.73-.27-1.18-.58-1.23-3.57-.55-4.59-1.3-4.82-1.84A.66.66,0,0,1,13,41a.4.4,0,0,1,.34-.42c5.49-.9,8-6.51,8.05-6.75v0a2.09,2.09,0,0,0,.2-1.76c-.38-.89-1.6-1.28-2.42-1.54l-.54-.18c-1.62-.64-1.76-1.3-1.69-1.64a1.53,1.53,0,0,1,1.49-1,1,1,0,0,1,.44.09,4.72,4.72,0,0,0,2,.51A1.62,1.62,0,0,0,22,27.94c0-.37,0-.76-.07-1.16-.16-2.59-.37-5.82.45-7.66a9.93,9.93,0,0,1,9.22-5.95h.77a10,10,0,0,1,9.24,6c.82,1.84.62,5.07.45,7.66v.11c0,.36,0,.71-.06,1a1.56,1.56,0,0,0,1.06.37h0a4.93,4.93,0,0,0,1.84-.51,1.38,1.38,0,0,1,.57-.11,1.75,1.75,0,0,1,.66.13h0a1.21,1.21,0,0,1,.92,1c0,.38-.28,1-1.71,1.51l-.54.18c-.81.26-2,.65-2.42,1.54a2.08,2.08,0,0,0,.2,1.76v0c.1.24,2.56,5.85,8.05,6.75A.4.4,0,0,1,51,41a.62.62,0,0,1-.06.23c-.23.53-1.25,1.28-4.82,1.83-.29,0-.4.43-.58,1.22-.06.29-.13.57-.22.88a.47.47,0,0,1-.51.38h0a4.64,4.64,0,0,1-.8-.1,10.68,10.68,0,0,0-2.15-.23,9.7,9.7,0,0,0-1.55.13,7.44,7.44,0,0,0-2.95,1.5A8.32,8.32,0,0,1,32.24,48.83Z"/></g></g></svg>