<svg id="Layer_1" data-name="Layer 1" xmlns="http://www.w3.org/2000/svg" viewBox="0 0 32 32"><defs><style>.cls-1{fill:#fff;}</style></defs><title>Artboard 1</title><g id="Flat_copy" data-name="Flat copy"><path class="cls-1" d="M18.23,8.89a3.68,3.68,0,0,0-2.48,3.7l0,.63-.64-.08a10.35,10.35,0,0,1-6.06-3l-.84-.84L8,9.94a3.72,3.72,0,0,0,.79,3.81c.51.54.39.62-.48.3a1.48,1.48,0,0,0-.6-.14,4.62,4.62,0,0,0,.46,1.72,4.11,4.11,0,0,0,1.74,1.65l.62.3H9.83c-.71,0-.74,0-.66.28A3.85,3.85,0,0,0,11.55,20l.79.27-.69.41a7.12,7.12,0,0,1-3.41,1,3.75,3.75,0,0,0-1,.1,9.75,9.75,0,0,0,2.46,1.13,10.74,10.74,0,0,0,8.35-1,11.18,11.18,0,0,0,4.24-5A13.26,13.26,0,0,0,23.1,13c0-.59,0-.67.75-1.38a8.56,8.56,0,0,0,.89-1c.13-.24.11-.24-.53,0-1.08.39-1.23.34-.7-.24A3.76,3.76,0,0,0,24.37,9s-.19,0-.41.14a7,7,0,0,1-1.12.44l-.69.22-.62-.43a5.19,5.19,0,0,0-1.08-.57A4.34,4.34,0,0,0,18.23,8.89Z"/></g></svg>